<?xml version="1.0" encoding="UTF-8" standalone="no"?>
<!DOCTYPE svg PUBLIC "-//W3C//DTD SVG 1.1//EN"
 "http://www.w3.org/Graphics/SVG/1.1/DTD/svg11.dtd">
<!-- Generated by graphviz version 2.38.0 (20140413.2041)
 -->
<!-- Title: %3 Pages: 1 -->
<svg width="222pt" height="204pt"
 viewBox="0.00 0.00 222.43 204.43" xmlns="http://www.w3.org/2000/svg" xmlns:xlink="http://www.w3.org/1999/xlink">
<g id="graph0" class="graph" transform="scale(1 1) rotate(0) translate(4 200.428)">
<title>%3</title>
<polygon fill="white" stroke="none" points="-4,4 -4,-200.428 218.428,-200.428 218.428,4 -4,4"/>
<!-- A -->
<g id="node1" class="node"><title>A</title>
<ellipse fill="none" stroke="black" cx="107.214" cy="-18" rx="27" ry="18"/>
<text text-anchor="middle" x="107.214" y="-13.8" font-family="Times,serif" font-size="14.00">A</text>
</g>
<!-- B -->
<g id="node2" class="node"><title>B</title>
<ellipse fill="none" stroke="black" cx="27" cy="-98.2141" rx="27" ry="18"/>
<text text-anchor="middle" x="27" y="-94.0141" font-family="Times,serif" font-size="14.00">B</text>
</g>
<!-- A&#45;&#45;B -->
<g id="0" class="edge"><title>A&#45;&#45;B</title>
<path fill="none" stroke="black" stroke-width="4" d="M87.0581,-30.309C70.9188,-44.0176 49.1495,-65.9644 36.6305,-81.2688"/>
<text text-anchor="middle" x="58.3443" y="-58.5889" font-family="Times,serif" font-size="14.00">3</text>
<polyline fill="none" stroke="black" points="61.8443,-55.7889 54.8443,-55.7889 55.8829,-59.8978 "/>
</g>
<!-- A&#45;&#45;B -->
<g id="1" class="edge"><title>A&#45;&#45;B</title>
<path fill="none" stroke="black" d="M97.6215,-34.8989C85.1322,-50.1764 63.3937,-72.0997 47.2475,-85.8273"/>
<text text-anchor="middle" x="68.9345" y="-63.1631" font-family="Times,serif" font-size="14.00">5</text>
<polyline fill="none" stroke="black" points="72.4345,-60.3631 65.4345,-60.3631 68.2719,-66.4541 "/>
</g>
<!-- D -->
<g id="node3" class="node"><title>D</title>
<ellipse fill="none" stroke="black" cx="107.214" cy="-178.428" rx="27" ry="18"/>
<text text-anchor="middle" x="107.214" y="-174.228" font-family="Times,serif" font-size="14.00">D</text>
</g>
<!-- A&#45;&#45;D -->
<g id="4" class="edge"><title>A&#45;&#45;D</title>
<path fill="none" stroke="black" stroke-width="4" d="M107.214,-36.0913C107.214,-66.9028 107.214,-129.223 107.214,-160.157"/>
<text text-anchor="middle" x="103.714" y="-100.924" font-family="Times,serif" font-size="14.00">1</text>
<polyline fill="none" stroke="black" points="107.214,-98.1241 100.214,-98.1241 107.214,-105.169 "/>
</g>
<!-- C -->
<g id="node4" class="node"><title>C</title>
<ellipse fill="none" stroke="black" cx="187.428" cy="-98.2141" rx="27" ry="18"/>
<text text-anchor="middle" x="187.428" y="-94.0141" font-family="Times,serif" font-size="14.00">C</text>
</g>
<!-- A&#45;&#45;C -->
<g id="2" class="edge"><title>A&#45;&#45;C</title>
<path fill="none" stroke="black" stroke-width="4" d="M116.807,-34.8989C129.296,-50.1764 151.034,-72.0997 167.181,-85.8273"/>
<text text-anchor="middle" x="138.494" y="-63.1631" font-family="Times,serif" font-size="14.00">2</text>
<polyline fill="none" stroke="black" points="141.994,-60.3631 134.994,-60.3631 142.742,-63.0742 "/>
</g>
<!-- A&#45;&#45;C -->
<g id="3" class="edge"><title>A&#45;&#45;C</title>
<path fill="none" stroke="black" d="M127.37,-30.309C143.509,-44.0176 165.279,-65.9644 177.798,-81.2688"/>
<text text-anchor="middle" x="145.584" y="-44.5889" font-family="Times,serif" font-size="14.00">10</text>
<polyline fill="none" stroke="black" points="152.584,-41.7889 138.584,-41.7889 146.689,-48.0054 "/>
</g>
<!-- B&#45;&#45;D -->
<g id="5" class="edge"><title>B&#45;&#45;D</title>
<path fill="none" stroke="black" d="M42.0877,-113.302C56.4287,-127.643 77.8755,-149.09 92.1941,-163.408"/>
<text text-anchor="middle" x="63.6409" y="-141.155" font-family="Times,serif" font-size="14.00">9</text>
<polyline fill="none" stroke="black" points="67.1409,-138.355 60.1409,-138.355 68.8258,-140.04 "/>
</g>
<!-- D&#45;&#45;C -->
<g id="6" class="edge"><title>D&#45;&#45;C</title>
<path fill="none" stroke="black" d="M122.302,-163.341C136.643,-149 158.09,-127.553 172.408,-113.234"/>
<text text-anchor="middle" x="143.855" y="-141.087" font-family="Times,serif" font-size="14.00">3</text>
<polyline fill="none" stroke="black" points="147.355,-138.287 140.355,-138.287 141.928,-143.715 "/>
</g>
</g>
</svg>
