<?xml version="1.0" encoding="UTF-8" standalone="no"?>
<!DOCTYPE svg PUBLIC "-//W3C//DTD SVG 1.1//EN"
 "http://www.w3.org/Graphics/SVG/1.1/DTD/svg11.dtd">
<!-- Generated by graphviz version 2.40.1 (20161225.0304)
 -->
<!-- Title: %3 Pages: 1 -->
<svg width="222pt" height="226pt"
 viewBox="0.00 0.00 222.43 226.43" xmlns="http://www.w3.org/2000/svg" xmlns:xlink="http://www.w3.org/1999/xlink">
<g id="graph0" class="graph" transform="scale(1 1) rotate(0) translate(4 222.4282)">
<title>%3</title>
<polygon fill="#ffffff" stroke="transparent" points="-4,4 -4,-222.4282 218.4282,-222.4282 218.4282,4 -4,4"/>
<text text-anchor="middle" x="107.2141" y="-203.2282" font-family="Times,serif" font-size="14.00" fill="#000000">Base Graph: Distances</text>
<!-- D -->
<g id="node1" class="node">
<title>D</title>
<ellipse fill="none" stroke="#000000" cx="107.2141" cy="-18" rx="27" ry="18"/>
<text text-anchor="middle" x="107.2141" y="-13.8" font-family="Times,serif" font-size="14.00" fill="#000000">D</text>
</g>
<!-- A -->
<g id="node2" class="node">
<title>A</title>
<ellipse fill="none" stroke="#000000" cx="107.2141" cy="-178.4282" rx="27" ry="18"/>
<text text-anchor="middle" x="107.2141" y="-174.2282" font-family="Times,serif" font-size="14.00" fill="#000000">A</text>
</g>
<!-- D&#45;&#45;A -->
<g id="4" class="edge">
<title>D&#45;&#45;A</title>
<path fill="none" stroke="#000000" stroke-width="4" d="M107.2141,-36.0913C107.2141,-66.9028 107.2141,-129.2231 107.2141,-160.1569"/>
<text text-anchor="middle" x="103.7141" y="-100.9241" font-family="Times,serif" font-size="14.00" fill="#000000">1</text>
<polyline fill="none" stroke="#000000" points="107.2141,-98.1241 100.2141,-98.1241 107.2141,-105.1691 "/>
</g>
<!-- C -->
<g id="node3" class="node">
<title>C</title>
<ellipse fill="none" stroke="#000000" cx="27" cy="-98.2141" rx="27" ry="18"/>
<text text-anchor="middle" x="27" y="-94.0141" font-family="Times,serif" font-size="14.00" fill="#000000">C</text>
</g>
<!-- D&#45;&#45;C -->
<g id="6" class="edge">
<title>D&#45;&#45;C</title>
<path fill="none" stroke="#000000" d="M92.1264,-33.0877C77.7854,-47.4287 56.3386,-68.8755 42.02,-83.1941"/>
<text text-anchor="middle" x="63.5732" y="-60.9409" font-family="Times,serif" font-size="14.00" fill="#000000">3</text>
<polyline fill="none" stroke="#000000" points="67.0732,-58.1409 60.0732,-58.1409 61.6297,-63.5844 "/>
</g>
<!-- B -->
<g id="node4" class="node">
<title>B</title>
<ellipse fill="none" stroke="#000000" cx="187.4282" cy="-98.2141" rx="27" ry="18"/>
<text text-anchor="middle" x="187.4282" y="-94.0141" font-family="Times,serif" font-size="14.00" fill="#000000">B</text>
</g>
<!-- D&#45;&#45;B -->
<g id="5" class="edge">
<title>D&#45;&#45;B</title>
<path fill="none" stroke="#000000" d="M122.3017,-33.0877C136.6428,-47.4287 158.0896,-68.8755 172.4082,-83.1941"/>
<text text-anchor="middle" x="143.855" y="-60.9409" font-family="Times,serif" font-size="14.00" fill="#000000">9</text>
<polyline fill="none" stroke="#000000" points="147.355,-58.1409 140.355,-58.1409 149.0399,-59.8258 "/>
</g>
<!-- A&#45;&#45;C -->
<g id="2" class="edge">
<title>A&#45;&#45;C</title>
<path fill="none" stroke="#000000" stroke-width="4" d="M97.6215,-161.5293C85.1322,-146.2518 63.3937,-124.3285 47.2475,-110.6008"/>
<text text-anchor="middle" x="68.9345" y="-138.8651" font-family="Times,serif" font-size="14.00" fill="#000000">2</text>
<polyline fill="none" stroke="#000000" points="72.4345,-136.0651 65.4345,-136.0651 75.0703,-136.7655 "/>
</g>
<!-- A&#45;&#45;C -->
<g id="3" class="edge">
<title>A&#45;&#45;C</title>
<path fill="none" stroke="#000000" d="M87.0581,-166.1191C70.9188,-152.4105 49.1495,-130.4638 36.6305,-115.1594"/>
<text text-anchor="middle" x="54.8443" y="-143.4393" font-family="Times,serif" font-size="14.00" fill="#000000">10</text>
<polyline fill="none" stroke="#000000" points="61.8443,-140.6393 47.8443,-140.6393 60.9101,-141.6647 "/>
</g>
<!-- A&#45;&#45;B -->
<g id="0" class="edge">
<title>A&#45;&#45;B</title>
<path fill="none" stroke="#000000" stroke-width="4" d="M127.3701,-166.1191C143.5093,-152.4105 165.2787,-130.4638 177.7976,-115.1594"/>
<text text-anchor="middle" x="149.0839" y="-143.4393" font-family="Times,serif" font-size="14.00" fill="#000000">3</text>
<polyline fill="none" stroke="#000000" points="152.5839,-140.6393 145.5839,-140.6393 148.4017,-146.7508 "/>
</g>
<!-- A&#45;&#45;B -->
<g id="1" class="edge">
<title>A&#45;&#45;B</title>
<path fill="none" stroke="#000000" d="M116.8067,-161.5293C129.296,-146.2518 151.0344,-124.3285 167.1807,-110.6008"/>
<text text-anchor="middle" x="138.4937" y="-138.8651" font-family="Times,serif" font-size="14.00" fill="#000000">5</text>
<polyline fill="none" stroke="#000000" points="141.9937,-136.0651 134.9937,-136.0651 136.0244,-140.1871 "/>
</g>
</g>
</svg>
