<?xml version="1.0" encoding="UTF-8" standalone="no"?>
<!DOCTYPE svg PUBLIC "-//W3C//DTD SVG 1.1//EN"
 "http://www.w3.org/Graphics/SVG/1.1/DTD/svg11.dtd">
<!-- Generated by graphviz version 2.40.1 (20161225.0304)
 -->
<!-- Title: %3 Pages: 1 -->
<svg width="222pt" height="204pt"
 viewBox="0.00 0.00 222.43 204.43" xmlns="http://www.w3.org/2000/svg" xmlns:xlink="http://www.w3.org/1999/xlink">
<g id="graph0" class="graph" transform="scale(1 1) rotate(0) translate(4 200.4282)">
<title>%3</title>
<polygon fill="#ffffff" stroke="transparent" points="-4,4 -4,-200.4282 218.4282,-200.4282 218.4282,4 -4,4"/>
<!-- C -->
<g id="node1" class="node">
<title>C</title>
<ellipse fill="none" stroke="#000000" cx="107.2141" cy="-18" rx="27" ry="18"/>
<text text-anchor="middle" x="107.2141" y="-13.8" font-family="Times,serif" font-size="14.00" fill="#000000">C</text>
</g>
<!-- A -->
<g id="node3" class="node">
<title>A</title>
<ellipse fill="none" stroke="#000000" cx="27" cy="-98.2141" rx="27" ry="18"/>
<text text-anchor="middle" x="27" y="-94.0141" font-family="Times,serif" font-size="14.00" fill="#000000">A</text>
</g>
<!-- C&#45;&#45;A -->
<g id="2" class="edge">
<title>C&#45;&#45;A</title>
<path fill="none" stroke="#000000" stroke-width="4" d="M87.0581,-30.309C70.9188,-44.0176 49.1495,-65.9644 36.6305,-81.2688"/>
<text text-anchor="middle" x="58.3443" y="-58.5889" font-family="Times,serif" font-size="14.00" fill="#000000">2</text>
<polyline fill="none" stroke="#000000" points="61.8443,-55.7889 54.8443,-55.7889 55.8829,-59.8978 "/>
</g>
<!-- C&#45;&#45;A -->
<g id="3" class="edge">
<title>C&#45;&#45;A</title>
<path fill="none" stroke="#000000" d="M97.6215,-34.8989C85.1322,-50.1764 63.3937,-72.0997 47.2475,-85.8273"/>
<text text-anchor="middle" x="79.4345" y="-63.1631" font-family="Times,serif" font-size="14.00" fill="#000000">10</text>
<polyline fill="none" stroke="#000000" points="86.4345,-60.3631 72.4345,-60.3631 73.383,-61.3711 "/>
</g>
<!-- D -->
<g id="node4" class="node">
<title>D</title>
<ellipse fill="none" stroke="#000000" cx="187.4282" cy="-98.2141" rx="27" ry="18"/>
<text text-anchor="middle" x="187.4282" y="-94.0141" font-family="Times,serif" font-size="14.00" fill="#000000">D</text>
</g>
<!-- C&#45;&#45;D -->
<g id="6" class="edge">
<title>C&#45;&#45;D</title>
<path fill="none" stroke="#000000" d="M122.3017,-33.0877C136.6428,-47.4287 158.0896,-68.8755 172.4082,-83.1941"/>
<text text-anchor="middle" x="143.855" y="-60.9409" font-family="Times,serif" font-size="14.00" fill="#000000">3</text>
<polyline fill="none" stroke="#000000" points="147.355,-58.1409 140.355,-58.1409 149.0399,-59.8258 "/>
</g>
<!-- B -->
<g id="node2" class="node">
<title>B</title>
<ellipse fill="none" stroke="#000000" cx="107.2141" cy="-178.4282" rx="27" ry="18"/>
<text text-anchor="middle" x="107.2141" y="-174.2282" font-family="Times,serif" font-size="14.00" fill="#000000">B</text>
</g>
<!-- B&#45;&#45;A -->
<g id="0" class="edge">
<title>B&#45;&#45;A</title>
<path fill="none" stroke="#000000" stroke-width="4" d="M97.6215,-161.5293C85.1322,-146.2518 63.3937,-124.3285 47.2475,-110.6008"/>
<text text-anchor="middle" x="68.9345" y="-138.8651" font-family="Times,serif" font-size="14.00" fill="#000000">3</text>
<polyline fill="none" stroke="#000000" points="72.4345,-136.0651 65.4345,-136.0651 75.0703,-136.7655 "/>
</g>
<!-- B&#45;&#45;A -->
<g id="1" class="edge">
<title>B&#45;&#45;A</title>
<path fill="none" stroke="#000000" d="M87.0581,-166.1191C70.9188,-152.4105 49.1495,-130.4638 36.6305,-115.1594"/>
<text text-anchor="middle" x="58.3443" y="-143.4393" font-family="Times,serif" font-size="14.00" fill="#000000">5</text>
<polyline fill="none" stroke="#000000" points="61.8443,-140.6393 54.8443,-140.6393 62.6093,-143.3691 "/>
</g>
<!-- B&#45;&#45;D -->
<g id="5" class="edge">
<title>B&#45;&#45;D</title>
<path fill="none" stroke="#000000" d="M122.3017,-163.3405C136.6428,-148.9995 158.0896,-127.5527 172.4082,-113.2341"/>
<text text-anchor="middle" x="143.855" y="-141.0873" font-family="Times,serif" font-size="14.00" fill="#000000">9</text>
<polyline fill="none" stroke="#000000" points="147.355,-138.2873 140.355,-138.2873 141.9276,-143.7147 "/>
</g>
<!-- A&#45;&#45;D -->
<g id="4" class="edge">
<title>A&#45;&#45;D</title>
<path fill="none" stroke="#000000" stroke-width="4" d="M54.2145,-98.2141C83.8046,-98.2141 130.8112,-98.2141 160.3484,-98.2141"/>
<text text-anchor="middle" x="103.7814" y="-101.0141" font-family="Times,serif" font-size="14.00" fill="#000000">1</text>
<polyline fill="none" stroke="#000000" points="107.2814,-98.2141 100.2814,-98.2141 103.7131,-98.2141 "/>
</g>
</g>
</svg>
