<?xml version="1.0" encoding="UTF-8" standalone="no"?>
<!DOCTYPE svg PUBLIC "-//W3C//DTD SVG 1.1//EN"
 "http://www.w3.org/Graphics/SVG/1.1/DTD/svg11.dtd">
<!-- Generated by graphviz version 2.40.1 (20161225.0304)
 -->
<!-- Title: %3 Pages: 1 -->
<svg width="222pt" height="204pt"
 viewBox="0.00 0.00 222.43 204.43" xmlns="http://www.w3.org/2000/svg" xmlns:xlink="http://www.w3.org/1999/xlink">
<g id="graph0" class="graph" transform="scale(1 1) rotate(0) translate(4 200.4282)">
<title>%3</title>
<polygon fill="#ffffff" stroke="transparent" points="-4,4 -4,-200.4282 218.4282,-200.4282 218.4282,4 -4,4"/>
<!-- A -->
<g id="node1" class="node">
<title>A</title>
<ellipse fill="none" stroke="#000000" cx="107.2141" cy="-18" rx="27" ry="18"/>
<text text-anchor="middle" x="107.2141" y="-13.8" font-family="Times,serif" font-size="14.00" fill="#000000">A</text>
</g>
<!-- B -->
<g id="node2" class="node">
<title>B</title>
<ellipse fill="none" stroke="#000000" cx="27" cy="-98.2141" rx="27" ry="18"/>
<text text-anchor="middle" x="27" y="-94.0141" font-family="Times,serif" font-size="14.00" fill="#000000">B</text>
</g>
<!-- A&#45;&#45;B -->
<g id="0" class="edge">
<title>A&#45;&#45;B</title>
<path fill="none" stroke="#000000" stroke-width="4" d="M87.0581,-30.309C70.9188,-44.0176 49.1495,-65.9644 36.6305,-81.2688"/>
<text text-anchor="middle" x="58.3443" y="-58.5889" font-family="Times,serif" font-size="14.00" fill="#000000">3</text>
<polyline fill="none" stroke="#000000" points="61.8443,-55.7889 54.8443,-55.7889 55.8829,-59.8978 "/>
</g>
<!-- A&#45;&#45;B -->
<g id="1" class="edge">
<title>A&#45;&#45;B</title>
<path fill="none" stroke="#000000" d="M97.6215,-34.8989C85.1322,-50.1764 63.3937,-72.0997 47.2475,-85.8273"/>
<text text-anchor="middle" x="68.9345" y="-63.1631" font-family="Times,serif" font-size="14.00" fill="#000000">5</text>
<polyline fill="none" stroke="#000000" points="72.4345,-60.3631 65.4345,-60.3631 68.2719,-66.4541 "/>
</g>
<!-- C -->
<g id="node3" class="node">
<title>C</title>
<ellipse fill="none" stroke="#000000" cx="187.4282" cy="-98.2141" rx="27" ry="18"/>
<text text-anchor="middle" x="187.4282" y="-94.0141" font-family="Times,serif" font-size="14.00" fill="#000000">C</text>
</g>
<!-- A&#45;&#45;C -->
<g id="2" class="edge">
<title>A&#45;&#45;C</title>
<path fill="none" stroke="#000000" d="M116.8067,-34.8989C129.296,-50.1764 151.0344,-72.0997 167.1807,-85.8273"/>
<text text-anchor="middle" x="138.4937" y="-63.1631" font-family="Times,serif" font-size="14.00" fill="#000000">2</text>
<polyline fill="none" stroke="#000000" points="141.9937,-60.3631 134.9937,-60.3631 142.7425,-63.0742 "/>
</g>
<!-- A&#45;&#45;C -->
<g id="3" class="edge">
<title>A&#45;&#45;C</title>
<path fill="none" stroke="#000000" d="M127.3701,-30.309C143.5093,-44.0176 165.2787,-65.9644 177.7976,-81.2688"/>
<text text-anchor="middle" x="145.5839" y="-44.5889" font-family="Times,serif" font-size="14.00" fill="#000000">10</text>
<polyline fill="none" stroke="#000000" points="152.5839,-41.7889 138.5839,-41.7889 146.6891,-48.0054 "/>
</g>
<!-- D -->
<g id="node4" class="node">
<title>D</title>
<ellipse fill="none" stroke="#000000" cx="107.2141" cy="-178.4282" rx="27" ry="18"/>
<text text-anchor="middle" x="107.2141" y="-174.2282" font-family="Times,serif" font-size="14.00" fill="#000000">D</text>
</g>
<!-- A&#45;&#45;D -->
<g id="4" class="edge">
<title>A&#45;&#45;D</title>
<path fill="none" stroke="#000000" d="M107.2141,-36.0913C107.2141,-66.9028 107.2141,-129.2231 107.2141,-160.1569"/>
<text text-anchor="middle" x="103.7141" y="-100.9241" font-family="Times,serif" font-size="14.00" fill="#000000">1</text>
<polyline fill="none" stroke="#000000" points="107.2141,-98.1241 100.2141,-98.1241 107.2141,-105.1691 "/>
</g>
<!-- B&#45;&#45;D -->
<g id="5" class="edge">
<title>B&#45;&#45;D</title>
<path fill="none" stroke="#000000" d="M42.0877,-113.3017C56.4287,-127.6428 77.8755,-149.0896 92.1941,-163.4082"/>
<text text-anchor="middle" x="63.6409" y="-141.155" font-family="Times,serif" font-size="14.00" fill="#000000">9</text>
<polyline fill="none" stroke="#000000" points="67.1409,-138.355 60.1409,-138.355 68.8258,-140.0399 "/>
</g>
<!-- C&#45;&#45;D -->
<g id="6" class="edge">
<title>C&#45;&#45;D</title>
<path fill="none" stroke="#000000" stroke-width="4" d="M172.3405,-113.3017C157.9995,-127.6428 136.5527,-149.0896 122.2341,-163.4082"/>
<text text-anchor="middle" x="143.7873" y="-141.155" font-family="Times,serif" font-size="14.00" fill="#000000">3</text>
<polyline fill="none" stroke="#000000" points="147.2873,-138.355 140.2873,-138.355 141.8438,-143.7985 "/>
</g>
</g>
</svg>
