<?xml version="1.0" encoding="UTF-8" standalone="no"?>
<!DOCTYPE svg PUBLIC "-//W3C//DTD SVG 1.1//EN"
 "http://www.w3.org/Graphics/SVG/1.1/DTD/svg11.dtd">
<!-- Generated by graphviz version 2.38.0 (20140413.2041)
 -->
<!-- Title: %3 Pages: 1 -->
<svg width="222pt" height="204pt"
 viewBox="0.00 0.00 222.43 204.43" xmlns="http://www.w3.org/2000/svg" xmlns:xlink="http://www.w3.org/1999/xlink">
<g id="graph0" class="graph" transform="scale(1 1) rotate(0) translate(4 200.428)">
<title>%3</title>
<polygon fill="white" stroke="none" points="-4,4 -4,-200.428 218.428,-200.428 218.428,4 -4,4"/>
<!-- C -->
<g id="node1" class="node"><title>C</title>
<ellipse fill="none" stroke="black" cx="107.214" cy="-18" rx="27" ry="18"/>
<text text-anchor="middle" x="107.214" y="-13.8" font-family="Times,serif" font-size="14.00">C</text>
</g>
<!-- D -->
<g id="node3" class="node"><title>D</title>
<ellipse fill="none" stroke="black" cx="27" cy="-98.2141" rx="27" ry="18"/>
<text text-anchor="middle" x="27" y="-94.0141" font-family="Times,serif" font-size="14.00">D</text>
</g>
<!-- C&#45;&#45;D -->
<g id="6" class="edge"><title>C&#45;&#45;D</title>
<path fill="none" stroke="black" d="M92.1264,-33.0877C77.7854,-47.4287 56.3386,-68.8755 42.02,-83.1941"/>
<text text-anchor="middle" x="63.5732" y="-60.9409" font-family="Times,serif" font-size="14.00">3</text>
<polyline fill="none" stroke="black" points="67.0732,-58.1409 60.0732,-58.1409 61.6297,-63.5844 "/>
</g>
<!-- A -->
<g id="node4" class="node"><title>A</title>
<ellipse fill="none" stroke="black" cx="187.428" cy="-98.2141" rx="27" ry="18"/>
<text text-anchor="middle" x="187.428" y="-94.0141" font-family="Times,serif" font-size="14.00">A</text>
</g>
<!-- C&#45;&#45;A -->
<g id="2" class="edge"><title>C&#45;&#45;A</title>
<path fill="none" stroke="black" stroke-width="4" d="M116.807,-34.8989C129.296,-50.1764 151.034,-72.0997 167.181,-85.8273"/>
<text text-anchor="middle" x="138.494" y="-63.1631" font-family="Times,serif" font-size="14.00">2</text>
<polyline fill="none" stroke="black" points="141.994,-60.3631 134.994,-60.3631 142.742,-63.0742 "/>
</g>
<!-- C&#45;&#45;A -->
<g id="3" class="edge"><title>C&#45;&#45;A</title>
<path fill="none" stroke="black" d="M127.37,-30.309C143.509,-44.0176 165.279,-65.9644 177.798,-81.2688"/>
<text text-anchor="middle" x="145.584" y="-44.5889" font-family="Times,serif" font-size="14.00">10</text>
<polyline fill="none" stroke="black" points="152.584,-41.7889 138.584,-41.7889 146.689,-48.0054 "/>
</g>
<!-- B -->
<g id="node2" class="node"><title>B</title>
<ellipse fill="none" stroke="black" cx="107.214" cy="-178.428" rx="27" ry="18"/>
<text text-anchor="middle" x="107.214" y="-174.228" font-family="Times,serif" font-size="14.00">B</text>
</g>
<!-- B&#45;&#45;D -->
<g id="5" class="edge"><title>B&#45;&#45;D</title>
<path fill="none" stroke="black" d="M92.1264,-163.341C77.7854,-149 56.3386,-127.553 42.02,-113.234"/>
<text text-anchor="middle" x="63.5732" y="-141.087" font-family="Times,serif" font-size="14.00">9</text>
<polyline fill="none" stroke="black" points="67.0732,-138.287 60.0732,-138.287 68.9509,-140.165 "/>
</g>
<!-- B&#45;&#45;A -->
<g id="0" class="edge"><title>B&#45;&#45;A</title>
<path fill="none" stroke="black" stroke-width="4" d="M127.37,-166.119C143.509,-152.411 165.279,-130.464 177.798,-115.159"/>
<text text-anchor="middle" x="149.084" y="-143.439" font-family="Times,serif" font-size="14.00">3</text>
<polyline fill="none" stroke="black" points="152.584,-140.639 145.584,-140.639 148.402,-146.751 "/>
</g>
<!-- B&#45;&#45;A -->
<g id="1" class="edge"><title>B&#45;&#45;A</title>
<path fill="none" stroke="black" d="M116.807,-161.529C129.296,-146.252 151.034,-124.328 167.181,-110.601"/>
<text text-anchor="middle" x="138.494" y="-138.865" font-family="Times,serif" font-size="14.00">5</text>
<polyline fill="none" stroke="black" points="141.994,-136.065 134.994,-136.065 136.024,-140.187 "/>
</g>
<!-- D&#45;&#45;A -->
<g id="4" class="edge"><title>D&#45;&#45;A</title>
<path fill="none" stroke="black" stroke-width="4" d="M54.2145,-98.2141C83.8046,-98.2141 130.811,-98.2141 160.348,-98.2141"/>
<text text-anchor="middle" x="103.781" y="-101.014" font-family="Times,serif" font-size="14.00">1</text>
<polyline fill="none" stroke="black" points="107.281,-98.2141 100.281,-98.2141 103.713,-98.2141 "/>
</g>
</g>
</svg>
