<?xml version="1.0" encoding="UTF-8" standalone="no"?>
<!DOCTYPE svg PUBLIC "-//W3C//DTD SVG 1.1//EN"
 "http://www.w3.org/Graphics/SVG/1.1/DTD/svg11.dtd">
<!-- Generated by graphviz version 2.40.1 (20161225.0304)
 -->
<!-- Title: %3 Pages: 1 -->
<svg width="149pt" height="302pt"
 viewBox="0.00 0.00 149.00 302.00" xmlns="http://www.w3.org/2000/svg" xmlns:xlink="http://www.w3.org/1999/xlink">
<g id="graph0" class="graph" transform="scale(1 1) rotate(0) translate(4 298)">
<title>%3</title>
<polygon fill="#ffffff" stroke="transparent" points="-4,4 -4,-298 145,-298 145,4 -4,4"/>
<!-- C -->
<g id="node1" class="node">
<title>C</title>
<ellipse fill="none" stroke="#000000" cx="114" cy="-276" rx="27" ry="18"/>
<text text-anchor="middle" x="114" y="-271.8" font-family="Times,serif" font-size="14.00" fill="#000000">C</text>
</g>
<!-- A -->
<g id="node2" class="node">
<title>A</title>
<ellipse fill="none" stroke="#000000" cx="70" cy="-190" rx="27" ry="18"/>
<text text-anchor="middle" x="70" y="-185.8" font-family="Times,serif" font-size="14.00" fill="#000000">A</text>
</g>
<!-- C&#45;&#45;A -->
<g id="2" class="edge">
<title>C&#45;&#45;A</title>
<path fill="none" stroke="#000000" stroke-width="4" d="M93.4142,-264.2975C84.8483,-258.2429 75.7966,-250.0093 71,-240 66.2723,-230.1346 65.9562,-217.868 66.8543,-207.9538"/>
<text text-anchor="middle" x="81.5" y="-228.8" font-family="Times,serif" font-size="14.00" fill="#000000">6, 7</text>
<polyline fill="none" stroke="#000000" points="92,-226 71,-226 69.9712,-237.6461 "/>
</g>
<!-- C&#45;&#45;A -->
<g id="3" class="edge">
<title>C&#45;&#45;A</title>
<path fill="none" stroke="#000000" d="M107.0236,-258.6073C102.9501,-248.8686 97.5342,-236.5906 92,-226 88.6077,-219.5082 84.5087,-212.595 80.7727,-206.5801"/>
<text text-anchor="middle" x="101.5" y="-228.8" font-family="Times,serif" font-size="14.00" fill="#000000">8</text>
<polyline fill="none" stroke="#000000" points="105,-226 98,-226 96.6142,-235.2422 "/>
</g>
<!-- D -->
<g id="node4" class="node">
<title>D</title>
<ellipse fill="none" stroke="#000000" cx="90" cy="-18" rx="27" ry="18"/>
<text text-anchor="middle" x="90" y="-13.8" font-family="Times,serif" font-size="14.00" fill="#000000">D</text>
</g>
<!-- C&#45;&#45;D -->
<g id="6" class="edge">
<title>C&#45;&#45;D</title>
<path fill="none" stroke="#000000" d="M114.3718,-257.8223C114.8146,-223.8815 114.6087,-148.6355 106,-86 103.622,-68.6984 98.8568,-49.3455 95.1423,-35.7233"/>
<text text-anchor="middle" x="115.5" y="-142.8" font-family="Times,serif" font-size="14.00" fill="#000000">9</text>
<polyline fill="none" stroke="#000000" points="119,-140 112,-140 111.8935,-147.5344 "/>
</g>
<!-- B -->
<g id="node3" class="node">
<title>B</title>
<ellipse fill="none" stroke="#000000" cx="27" cy="-104" rx="27" ry="18"/>
<text text-anchor="middle" x="27" y="-99.8" font-family="Times,serif" font-size="14.00" fill="#000000">B</text>
</g>
<!-- A&#45;&#45;B -->
<g id="0" class="edge">
<title>A&#45;&#45;B</title>
<path fill="none" stroke="#000000" stroke-width="4" d="M48.3838,-178.5473C39.4048,-172.5431 29.9408,-164.2799 25,-154 20.2582,-144.1341 20.6686,-131.8675 22.3082,-121.9534"/>
<text text-anchor="middle" x="35.5" y="-142.8" font-family="Times,serif" font-size="14.00" fill="#000000">3, 5</text>
<polyline fill="none" stroke="#000000" points="46,-140 25,-140 23.799,-151.1658 "/>
</g>
<!-- A&#45;&#45;B -->
<g id="1" class="edge">
<title>A&#45;&#45;B</title>
<path fill="none" stroke="#000000" d="M61.9407,-172.7967C57.3566,-163.1172 51.4574,-150.8355 46,-140 42.8846,-133.8145 39.3701,-127.0892 36.2186,-121.1437"/>
<text text-anchor="middle" x="56.5" y="-142.8" font-family="Times,serif" font-size="14.00" fill="#000000">4</text>
<polyline fill="none" stroke="#000000" points="60,-140 53,-140 50.9314,-149.9268 "/>
</g>
<!-- A&#45;&#45;D -->
<g id="4" class="edge">
<title>A&#45;&#45;D</title>
<path fill="none" stroke="#000000" stroke-width="4" d="M72.1025,-171.9181C75.9437,-138.8841 84.0531,-69.1435 87.8956,-36.0977"/>
<text text-anchor="middle" x="91.5" y="-99.8" font-family="Times,serif" font-size="14.00" fill="#000000">0, 1</text>
<polyline fill="none" stroke="#000000" points="102,-97 81,-97 80.1386,-102.8079 "/>
</g>
<!-- B&#45;&#45;D -->
<g id="5" class="edge">
<title>B&#45;&#45;D</title>
<path fill="none" stroke="#000000" d="M38.8498,-87.8241C50.0419,-72.5459 66.7445,-49.7456 77.9891,-34.3958"/>
<text text-anchor="middle" x="66.5" y="-56.8" font-family="Times,serif" font-size="14.00" fill="#000000">2</text>
<polyline fill="none" stroke="#000000" points="70,-54 63,-54 61.3411,-57.1216 "/>
</g>
</g>
</svg>
