<?xml version="1.0" encoding="UTF-8" standalone="no"?>
<!DOCTYPE svg PUBLIC "-//W3C//DTD SVG 1.1//EN"
 "http://www.w3.org/Graphics/SVG/1.1/DTD/svg11.dtd">
<!-- Generated by graphviz version 2.40.1 (20161225.0304)
 -->
<!-- Title: %3 Pages: 1 -->
<svg width="245pt" height="226pt"
 viewBox="0.00 0.00 244.88 226.43" xmlns="http://www.w3.org/2000/svg" xmlns:xlink="http://www.w3.org/1999/xlink">
<g id="graph0" class="graph" transform="scale(1 1) rotate(0) translate(4 222.4282)">
<title>%3</title>
<polygon fill="#ffffff" stroke="transparent" points="-4,4 -4,-222.4282 240.876,-222.4282 240.876,4 -4,4"/>
<text text-anchor="middle" x="118.438" y="-203.2282" font-family="Times,serif" font-size="14.00" fill="#000000">Base Graph: Chinese Postman Solution</text>
<!-- D -->
<g id="node1" class="node">
<title>D</title>
<ellipse fill="none" stroke="#000000" cx="118.438" cy="-18" rx="27" ry="18"/>
<text text-anchor="middle" x="118.438" y="-13.8" font-family="Times,serif" font-size="14.00" fill="#000000">D</text>
</g>
<!-- A -->
<g id="node2" class="node">
<title>A</title>
<ellipse fill="none" stroke="#000000" cx="118.438" cy="-178.4282" rx="27" ry="18"/>
<text text-anchor="middle" x="118.438" y="-174.2282" font-family="Times,serif" font-size="14.00" fill="#000000">A</text>
</g>
<!-- D&#45;&#45;A -->
<g id="4" class="edge">
<title>D&#45;&#45;A</title>
<path fill="none" stroke="#000000" stroke-width="4" d="M118.438,-36.0913C118.438,-66.9028 118.438,-129.2231 118.438,-160.1569"/>
<text text-anchor="middle" x="107.938" y="-100.9241" font-family="Times,serif" font-size="14.00" fill="#000000">8, 9</text>
<polyline fill="none" stroke="#000000" points="118.438,-98.1241 97.438,-98.1241 118.438,-105.1691 "/>
</g>
<!-- C -->
<g id="node3" class="node">
<title>C</title>
<ellipse fill="none" stroke="#000000" cx="38.2239" cy="-98.2141" rx="27" ry="18"/>
<text text-anchor="middle" x="38.2239" y="-94.0141" font-family="Times,serif" font-size="14.00" fill="#000000">C</text>
</g>
<!-- D&#45;&#45;C -->
<g id="6" class="edge">
<title>D&#45;&#45;C</title>
<path fill="none" stroke="#000000" d="M103.3503,-33.0877C89.0093,-47.4287 67.5625,-68.8755 53.2439,-83.1941"/>
<text text-anchor="middle" x="74.7971" y="-60.9409" font-family="Times,serif" font-size="14.00" fill="#000000">7</text>
<polyline fill="none" stroke="#000000" points="78.2971,-58.1409 71.2971,-58.1409 72.8536,-63.5844 "/>
</g>
<!-- B -->
<g id="node4" class="node">
<title>B</title>
<ellipse fill="none" stroke="#000000" cx="198.6521" cy="-98.2141" rx="27" ry="18"/>
<text text-anchor="middle" x="198.6521" y="-94.0141" font-family="Times,serif" font-size="14.00" fill="#000000">B</text>
</g>
<!-- D&#45;&#45;B -->
<g id="5" class="edge">
<title>D&#45;&#45;B</title>
<path fill="none" stroke="#000000" d="M133.5256,-33.0877C147.8667,-47.4287 169.3135,-68.8755 183.6321,-83.1941"/>
<text text-anchor="middle" x="155.0789" y="-60.9409" font-family="Times,serif" font-size="14.00" fill="#000000">0</text>
<polyline fill="none" stroke="#000000" points="158.5789,-58.1409 151.5789,-58.1409 160.2638,-59.8258 "/>
</g>
<!-- A&#45;&#45;C -->
<g id="2" class="edge">
<title>A&#45;&#45;C</title>
<path fill="none" stroke="#000000" stroke-width="4" d="M108.8454,-161.5293C96.3561,-146.2518 74.6176,-124.3285 58.4714,-110.6008"/>
<text text-anchor="middle" x="73.1584" y="-124.8651" font-family="Times,serif" font-size="14.00" fill="#000000">4, 6</text>
<polyline fill="none" stroke="#000000" points="83.6584,-122.0651 62.6584,-122.0651 75.6473,-126.2368 "/>
</g>
<!-- A&#45;&#45;C -->
<g id="3" class="edge">
<title>A&#45;&#45;C</title>
<path fill="none" stroke="#000000" d="M98.282,-166.1191C82.1427,-152.4105 60.3734,-130.4638 47.8544,-115.1594"/>
<text text-anchor="middle" x="69.5682" y="-143.4393" font-family="Times,serif" font-size="14.00" fill="#000000">5</text>
<polyline fill="none" stroke="#000000" points="73.0682,-140.6393 66.0682,-140.6393 73.8331,-143.3691 "/>
</g>
<!-- A&#45;&#45;B -->
<g id="0" class="edge">
<title>A&#45;&#45;B</title>
<path fill="none" stroke="#000000" stroke-width="4" d="M138.594,-166.1191C154.7332,-152.4105 176.5026,-130.4638 189.0215,-115.1594"/>
<text text-anchor="middle" x="153.3078" y="-143.4393" font-family="Times,serif" font-size="14.00" fill="#000000">2, 3</text>
<polyline fill="none" stroke="#000000" points="163.8078,-140.6393 142.8078,-140.6393 155.7739,-150.4895 "/>
</g>
<!-- A&#45;&#45;B -->
<g id="1" class="edge">
<title>A&#45;&#45;B</title>
<path fill="none" stroke="#000000" d="M128.0306,-161.5293C140.5199,-146.2518 162.2583,-124.3285 178.4046,-110.6008"/>
<text text-anchor="middle" x="149.7176" y="-124.8651" font-family="Times,serif" font-size="14.00" fill="#000000">1</text>
<polyline fill="none" stroke="#000000" points="153.2176,-122.0651 146.2176,-122.0651 153.9664,-133.3539 "/>
</g>
</g>
</svg>
