<?xml version="1.0" encoding="UTF-8" standalone="no"?>
<!DOCTYPE svg PUBLIC "-//W3C//DTD SVG 1.1//EN"
 "http://www.w3.org/Graphics/SVG/1.1/DTD/svg11.dtd">
<!-- Generated by graphviz version 2.40.1 (20161225.0304)
 -->
<!-- Title: %3 Pages: 1 -->
<svg width="153pt" height="216pt"
 viewBox="0.00 0.00 153.00 216.00" xmlns="http://www.w3.org/2000/svg" xmlns:xlink="http://www.w3.org/1999/xlink">
<g id="graph0" class="graph" transform="scale(1 1) rotate(0) translate(4 212)">
<title>%3</title>
<polygon fill="#ffffff" stroke="transparent" points="-4,4 -4,-212 149,-212 149,4 -4,4"/>
<!-- A -->
<g id="node1" class="node">
<title>A</title>
<ellipse fill="none" stroke="#000000" cx="99" cy="-190" rx="27" ry="18"/>
<text text-anchor="middle" x="99" y="-185.8" font-family="Times,serif" font-size="14.00" fill="#000000">A</text>
</g>
<!-- B -->
<g id="node2" class="node">
<title>B</title>
<ellipse fill="none" stroke="#000000" cx="27" cy="-104" rx="27" ry="18"/>
<text text-anchor="middle" x="27" y="-99.8" font-family="Times,serif" font-size="14.00" fill="#000000">B</text>
</g>
<!-- A&#45;&#45;B -->
<g id="0" class="edge">
<title>A&#45;&#45;B</title>
<path fill="none" stroke="#000000" stroke-width="4" d="M72.9702,-184.5524C56.4108,-179.5942 36.223,-170.44 26,-154 20.1314,-144.5625 20.3814,-132.0625 22.0986,-121.9219"/>
<text text-anchor="middle" x="36.5" y="-142.8" font-family="Times,serif" font-size="14.00" fill="#000000">5, 7</text>
<polyline fill="none" stroke="#000000" points="47,-140 26,-140 25.4676,-153.1064 "/>
</g>
<!-- A&#45;&#45;B -->
<g id="1" class="edge">
<title>A&#45;&#45;B</title>
<path fill="none" stroke="#000000" d="M85.7941,-174.2263C72.8842,-158.8061 53.3305,-135.4504 40.366,-119.965"/>
<text text-anchor="middle" x="70.5" y="-142.8" font-family="Times,serif" font-size="14.00" fill="#000000">6</text>
<polyline fill="none" stroke="#000000" points="74,-140 67,-140 65.9532,-150.5275 "/>
</g>
<!-- C -->
<g id="node3" class="node">
<title>C</title>
<ellipse fill="none" stroke="#000000" cx="99" cy="-104" rx="27" ry="18"/>
<text text-anchor="middle" x="99" y="-99.8" font-family="Times,serif" font-size="14.00" fill="#000000">C</text>
</g>
<!-- A&#45;&#45;C -->
<g id="2" class="edge">
<title>A&#45;&#45;C</title>
<path fill="none" stroke="#000000" d="M99,-171.7616C99,-157.1671 99,-136.7996 99,-122.2121"/>
<text text-anchor="middle" x="102.5" y="-142.8" font-family="Times,serif" font-size="14.00" fill="#000000">1</text>
<polyline fill="none" stroke="#000000" points="106,-140 99,-140 99,-147.3939 "/>
</g>
<!-- A&#45;&#45;C -->
<g id="3" class="edge">
<title>A&#45;&#45;C</title>
<path fill="none" stroke="#000000" d="M103.7673,-172.1838C105.0903,-166.4252 106.3433,-159.9824 107,-154 108.1703,-143.3391 106.4082,-131.4837 104.243,-121.9937"/>
<text text-anchor="middle" x="110.5" y="-142.8" font-family="Times,serif" font-size="14.00" fill="#000000">2</text>
<polyline fill="none" stroke="#000000" points="114,-140 107,-140 107.3735,-146.8696 "/>
</g>
<!-- D -->
<g id="node4" class="node">
<title>D</title>
<ellipse fill="none" stroke="#000000" cx="99" cy="-18" rx="27" ry="18"/>
<text text-anchor="middle" x="99" y="-13.8" font-family="Times,serif" font-size="14.00" fill="#000000">D</text>
</g>
<!-- A&#45;&#45;D -->
<g id="4" class="edge">
<title>A&#45;&#45;D</title>
<path fill="none" stroke="#000000" d="M110.6242,-173.6084C119.2507,-160.3832 130.2989,-140.9275 135,-122 142.3798,-92.2877 137.839,-81.3087 124,-54 120.5604,-47.2125 115.9933,-40.2346 111.7044,-34.2507"/>
<text text-anchor="middle" x="141.5" y="-99.8" font-family="Times,serif" font-size="14.00" fill="#000000">8</text>
<polyline fill="none" stroke="#000000" points="145,-97 138,-97 138.3499,-102.5485 "/>
</g>
<!-- B&#45;&#45;D -->
<g id="5" class="edge">
<title>B&#45;&#45;D</title>
<path fill="none" stroke="#000000" d="M40.2059,-88.2263C53.1158,-72.8061 72.6695,-49.4504 85.634,-33.965"/>
<text text-anchor="middle" x="70.5" y="-56.8" font-family="Times,serif" font-size="14.00" fill="#000000">4</text>
<polyline fill="none" stroke="#000000" points="74,-54 67,-54 66.322,-57.032 "/>
</g>
<!-- C&#45;&#45;D -->
<g id="6" class="edge">
<title>C&#45;&#45;D</title>
<path fill="none" stroke="#000000" stroke-width="4" d="M99,-85.7616C99,-71.1671 99,-50.7996 99,-36.2121"/>
<text text-anchor="middle" x="109.5" y="-56.8" font-family="Times,serif" font-size="14.00" fill="#000000">0, 3</text>
<polyline fill="none" stroke="#000000" points="120,-54 99,-54 99,-61.3939 "/>
</g>
</g>
</svg>
