<?xml version="1.0" encoding="UTF-8" standalone="no"?>
<!DOCTYPE svg PUBLIC "-//W3C//DTD SVG 1.1//EN"
 "http://www.w3.org/Graphics/SVG/1.1/DTD/svg11.dtd">
<!-- Generated by graphviz version 2.38.0 (20140413.2041)
 -->
<!-- Title: %3 Pages: 1 -->
<svg width="576pt" height="584pt"
 viewBox="0.00 0.00 575.82 583.59" xmlns="http://www.w3.org/2000/svg" xmlns:xlink="http://www.w3.org/1999/xlink">
<g id="graph0" class="graph" transform="scale(1 1) rotate(0) translate(4 579.59)">
<title>%3</title>
<polygon fill="white" stroke="none" points="-4,4 -4,-579.59 571.816,-579.59 571.816,4 -4,4"/>
<text text-anchor="middle" x="283.908" y="-560.39" font-family="Times,serif" font-size="14.00">Base Graph: Distances</text>
<!-- e -->
<g id="node1" class="node"><title>e</title>
<ellipse fill="none" stroke="black" cx="510.955" cy="-155.644" rx="27" ry="18"/>
<text text-anchor="middle" x="510.955" y="-151.444" font-family="Times,serif" font-size="14.00">e</text>
</g>
<!-- d -->
<g id="node8" class="node"><title>d</title>
<ellipse fill="none" stroke="black" cx="428.213" cy="-62.2466" rx="27" ry="18"/>
<text text-anchor="middle" x="428.213" y="-58.0466" font-family="Times,serif" font-size="14.00">d</text>
</g>
<!-- e&#45;&#45;d -->
<g id="edge1" class="edge"><title>e&#45;&#45;d</title>
<path fill="none" stroke="black" stroke-dasharray="5,2" d="M496.919,-139.8C481.611,-122.521 457.267,-95.042 442.041,-77.8562"/>
<text text-anchor="middle" x="465.98" y="-111.628" font-family="Times,serif" font-size="14.00">2</text>
</g>
<!-- a -->
<g id="node12" class="node"><title>a</title>
<ellipse fill="none" stroke="black" cx="27" cy="-339.184" rx="27" ry="18"/>
<text text-anchor="middle" x="27" y="-334.984" font-family="Times,serif" font-size="14.00">a</text>
</g>
<!-- e&#45;&#45;a -->
<g id="edge3" class="edge"><title>e&#45;&#45;a</title>
<path fill="none" stroke="black" d="M487.285,-164.62C405.114,-195.784 132.725,-299.087 50.6242,-330.224"/>
<text text-anchor="middle" x="261.955" y="-250.222" font-family="Times,serif" font-size="14.00">10</text>
</g>
<!-- f -->
<g id="node13" class="node"><title>f</title>
<ellipse fill="none" stroke="black" cx="540.816" cy="-276.795" rx="27" ry="18"/>
<text text-anchor="middle" x="540.816" y="-272.595" font-family="Times,serif" font-size="14.00">f</text>
</g>
<!-- e&#45;&#45;f -->
<g id="edge2" class="edge"><title>e&#45;&#45;f</title>
<path fill="none" stroke="black" stroke-dasharray="5,2" d="M515.361,-173.52C521.007,-196.426 530.738,-235.904 536.392,-258.845"/>
<text text-anchor="middle" x="522.377" y="-218.983" font-family="Times,serif" font-size="14.00">2</text>
</g>
<!-- m -->
<g id="node2" class="node"><title>m</title>
<ellipse fill="none" stroke="black" cx="84.9868" cy="-103.922" rx="27" ry="18"/>
<text text-anchor="middle" x="84.9868" y="-99.7217" font-family="Times,serif" font-size="14.00">m</text>
</g>
<!-- l -->
<g id="node3" class="node"><title>l</title>
<ellipse fill="none" stroke="black" cx="27" cy="-214.406" rx="27" ry="18"/>
<text text-anchor="middle" x="27" y="-210.206" font-family="Times,serif" font-size="14.00">l</text>
</g>
<!-- m&#45;&#45;l -->
<g id="edge5" class="edge"><title>m&#45;&#45;l</title>
<path fill="none" stroke="black" stroke-dasharray="5,2" d="M75.9264,-121.185C65.0326,-141.941 46.8622,-176.562 35.9968,-197.264"/>
<text text-anchor="middle" x="52.4616" y="-162.025" font-family="Times,serif" font-size="14.00">2</text>
</g>
<!-- b -->
<g id="node9" class="node"><title>b</title>
<ellipse fill="none" stroke="black" cx="187.676" cy="-33.0402" rx="27" ry="18"/>
<text text-anchor="middle" x="187.676" y="-28.8402" font-family="Times,serif" font-size="14.00">b</text>
</g>
<!-- m&#45;&#45;b -->
<g id="edge6" class="edge"><title>m&#45;&#45;b</title>
<path fill="none" stroke="black" stroke-dasharray="5,2" d="M103.822,-90.921C122.234,-78.2116 150.123,-58.9617 168.613,-46.1986"/>
<text text-anchor="middle" x="132.717" y="-71.3598" font-family="Times,serif" font-size="14.00">2</text>
</g>
<!-- m&#45;&#45;a -->
<g id="edge4" class="edge"><title>m&#45;&#45;a</title>
<path fill="none" stroke="black" d="M80.533,-121.992C69.7128,-165.891 42.1433,-277.745 31.3896,-321.374"/>
<text text-anchor="middle" x="62.9613" y="-224.483" font-family="Times,serif" font-size="14.00">10</text>
</g>
<!-- k -->
<g id="node4" class="node"><title>k</title>
<ellipse fill="none" stroke="black" cx="84.9868" cy="-449.668" rx="27" ry="18"/>
<text text-anchor="middle" x="84.9868" y="-445.468" font-family="Times,serif" font-size="14.00">k</text>
</g>
<!-- l&#45;&#45;k -->
<g id="edge8" class="edge"><title>l&#45;&#45;k</title>
<path fill="none" stroke="black" stroke-dasharray="5,2" d="M31.4538,-232.476C42.2741,-276.376 69.8435,-388.23 80.5972,-431.859"/>
<text text-anchor="middle" x="59.5255" y="-334.968" font-family="Times,serif" font-size="14.00">2</text>
</g>
<!-- l&#45;&#45;a -->
<g id="edge7" class="edge"><title>l&#45;&#45;a</title>
<path fill="none" stroke="black" d="M27,-232.55C27,-256.207 27,-297.35 27,-321.018"/>
<text text-anchor="middle" x="20" y="-279.584" font-family="Times,serif" font-size="14.00">10</text>
</g>
<!-- j -->
<g id="node10" class="node"><title>j</title>
<ellipse fill="none" stroke="black" cx="187.676" cy="-520.55" rx="27" ry="18"/>
<text text-anchor="middle" x="187.676" y="-516.35" font-family="Times,serif" font-size="14.00">j</text>
</g>
<!-- k&#45;&#45;j -->
<g id="edge9" class="edge"><title>k&#45;&#45;j</title>
<path fill="none" stroke="black" stroke-dasharray="5,2" d="M103.822,-462.669C122.234,-475.378 150.123,-494.628 168.613,-507.391"/>
<text text-anchor="middle" x="132.717" y="-487.83" font-family="Times,serif" font-size="14.00">2</text>
</g>
<!-- k&#45;&#45;a -->
<g id="edge10" class="edge"><title>k&#45;&#45;a</title>
<path fill="none" stroke="black" d="M75.9264,-432.405C65.0326,-411.649 46.8622,-377.028 35.9968,-356.326"/>
<text text-anchor="middle" x="48.9616" y="-397.165" font-family="Times,serif" font-size="14.00">10</text>
</g>
<!-- i -->
<g id="node5" class="node"><title>i</title>
<ellipse fill="none" stroke="black" cx="311.544" cy="-535.59" rx="27" ry="18"/>
<text text-anchor="middle" x="311.544" y="-531.39" font-family="Times,serif" font-size="14.00">i</text>
</g>
<!-- h -->
<g id="node6" class="node"><title>h</title>
<ellipse fill="none" stroke="black" cx="428.213" cy="-491.343" rx="27" ry="18"/>
<text text-anchor="middle" x="428.213" y="-487.143" font-family="Times,serif" font-size="14.00">h</text>
</g>
<!-- i&#45;&#45;h -->
<g id="edge12" class="edge"><title>i&#45;&#45;h</title>
<path fill="none" stroke="black" stroke-dasharray="5,2" d="M335.154,-526.636C355.395,-518.96 384.407,-507.957 404.638,-500.284"/>
<text text-anchor="middle" x="366.396" y="-516.26" font-family="Times,serif" font-size="14.00">2</text>
</g>
<!-- i&#45;&#45;j -->
<g id="edge11" class="edge"><title>i&#45;&#45;j</title>
<path fill="none" stroke="black" stroke-dasharray="5,2" d="M284.971,-532.364C264.214,-529.843 235.487,-526.355 214.633,-523.823"/>
<text text-anchor="middle" x="246.302" y="-530.893" font-family="Times,serif" font-size="14.00">2</text>
</g>
<!-- i&#45;&#45;a -->
<g id="edge13" class="edge"><title>i&#45;&#45;a</title>
<path fill="none" stroke="black" d="M292.432,-522.398C240.596,-486.618 97.767,-388.031 46.0284,-352.318"/>
<text text-anchor="middle" x="162.23" y="-440.158" font-family="Times,serif" font-size="14.00">10</text>
</g>
<!-- g -->
<g id="node7" class="node"><title>g</title>
<ellipse fill="none" stroke="black" cx="510.955" cy="-397.946" rx="27" ry="18"/>
<text text-anchor="middle" x="510.955" y="-393.746" font-family="Times,serif" font-size="14.00">g</text>
</g>
<!-- h&#45;&#45;g -->
<g id="edge14" class="edge"><title>h&#45;&#45;g</title>
<path fill="none" stroke="black" stroke-dasharray="5,2" d="M442.249,-475.5C457.556,-458.221 481.901,-430.742 497.126,-413.556"/>
<text text-anchor="middle" x="466.187" y="-447.328" font-family="Times,serif" font-size="14.00">2</text>
</g>
<!-- h&#45;&#45;a -->
<g id="edge15" class="edge"><title>h&#45;&#45;a</title>
<path fill="none" stroke="black" d="M404.613,-482.393C333.476,-455.415 121.668,-375.086 50.5701,-348.123"/>
<text text-anchor="middle" x="220.591" y="-418.058" font-family="Times,serif" font-size="14.00">10</text>
</g>
<!-- g&#45;&#45;a -->
<g id="edge17" class="edge"><title>g&#45;&#45;a</title>
<path fill="none" stroke="black" d="M484.246,-394.703C399.634,-384.43 138.124,-352.676 53.6263,-342.417"/>
<text text-anchor="middle" x="261.936" y="-371.36" font-family="Times,serif" font-size="14.00">10</text>
</g>
<!-- g&#45;&#45;f -->
<g id="edge16" class="edge"><title>g&#45;&#45;f</title>
<path fill="none" stroke="black" stroke-dasharray="5,2" d="M515.361,-380.07C521.007,-357.164 530.738,-317.686 536.392,-294.745"/>
<text text-anchor="middle" x="522.377" y="-340.207" font-family="Times,serif" font-size="14.00">2</text>
</g>
<!-- c -->
<g id="node11" class="node"><title>c</title>
<ellipse fill="none" stroke="black" cx="311.544" cy="-18" rx="27" ry="18"/>
<text text-anchor="middle" x="311.544" y="-13.8" font-family="Times,serif" font-size="14.00">c</text>
</g>
<!-- d&#45;&#45;c -->
<g id="edge18" class="edge"><title>d&#45;&#45;c</title>
<path fill="none" stroke="black" stroke-dasharray="5,2" d="M404.603,-53.2926C384.361,-45.6161 355.35,-34.6134 335.118,-26.9406"/>
<text text-anchor="middle" x="366.361" y="-42.9166" font-family="Times,serif" font-size="14.00">2</text>
</g>
<!-- d&#45;&#45;a -->
<g id="edge19" class="edge"><title>d&#45;&#45;a</title>
<path fill="none" stroke="black" d="M409.399,-75.2324C342.007,-121.75 113.099,-279.753 45.7725,-326.226"/>
<text text-anchor="middle" x="220.586" y="-203.529" font-family="Times,serif" font-size="14.00">10</text>
</g>
<!-- b&#45;&#45;c -->
<g id="edge20" class="edge"><title>b&#45;&#45;c</title>
<path fill="none" stroke="black" stroke-dasharray="5,2" d="M214.249,-29.8137C235.006,-27.2933 263.733,-23.8053 284.588,-21.2731"/>
<text text-anchor="middle" x="245.918" y="-28.3434" font-family="Times,serif" font-size="14.00">2</text>
</g>
<!-- b&#45;&#45;a -->
<g id="edge21" class="edge"><title>b&#45;&#45;a</title>
<path fill="none" stroke="black" d="M178.577,-50.377C150.297,-104.262 64.1434,-268.413 35.9992,-322.037"/>
<text text-anchor="middle" x="100.288" y="-189.007" font-family="Times,serif" font-size="14.00">10</text>
</g>
<!-- j&#45;&#45;a -->
<g id="edge22" class="edge"><title>j&#45;&#45;a</title>
<path fill="none" stroke="black" d="M173.699,-504.772C143.235,-470.385 71.161,-389.031 40.8312,-354.796"/>
<text text-anchor="middle" x="100.265" y="-418.584" font-family="Times,serif" font-size="14.00">10</text>
</g>
<!-- c&#45;&#45;a -->
<g id="edge23" class="edge"><title>c&#45;&#45;a</title>
<path fill="none" stroke="black" d="M297.433,-33.9275C248.877,-88.7361 89.0316,-269.164 40.8602,-323.539"/>
<text text-anchor="middle" x="162.147" y="-181.533" font-family="Times,serif" font-size="14.00">10</text>
</g>
<!-- a&#45;&#45;f -->
<g id="edge24" class="edge"><title>a&#45;&#45;f</title>
<path fill="none" stroke="black" d="M53.9016,-335.917C142.691,-325.136 425.781,-290.763 514.181,-280.029"/>
<text text-anchor="middle" x="277.041" y="-310.773" font-family="Times,serif" font-size="14.00">10</text>
</g>
</g>
</svg>
