<?xml version="1.0" encoding="UTF-8" standalone="no"?>
<!DOCTYPE svg PUBLIC "-//W3C//DTD SVG 1.1//EN"
 "http://www.w3.org/Graphics/SVG/1.1/DTD/svg11.dtd">
<!-- Generated by graphviz version 2.38.0 (20140413.2041)
 -->
<!-- Title: %3 Pages: 1 -->
<svg width="576pt" height="584pt"
 viewBox="0.00 0.00 575.82 583.59" xmlns="http://www.w3.org/2000/svg" xmlns:xlink="http://www.w3.org/1999/xlink">
<g id="graph0" class="graph" transform="scale(1 1) rotate(0) translate(4 579.59)">
<title>%3</title>
<polygon fill="white" stroke="none" points="-4,4 -4,-579.59 571.816,-579.59 571.816,4 -4,4"/>
<text text-anchor="middle" x="283.908" y="-560.39" font-family="Times,serif" font-size="14.00">Base Graph: Distances</text>
<!-- d -->
<g id="node1" class="node"><title>d</title>
<ellipse fill="none" stroke="black" cx="510.955" cy="-155.644" rx="27" ry="18"/>
<text text-anchor="middle" x="510.955" y="-151.444" font-family="Times,serif" font-size="14.00">d</text>
</g>
<!-- c -->
<g id="node3" class="node"><title>c</title>
<ellipse fill="none" stroke="black" cx="428.213" cy="-62.2466" rx="27" ry="18"/>
<text text-anchor="middle" x="428.213" y="-58.0466" font-family="Times,serif" font-size="14.00">c</text>
</g>
<!-- d&#45;&#45;c -->
<g id="edge1" class="edge"><title>d&#45;&#45;c</title>
<path fill="none" stroke="black" stroke-dasharray="5,2" d="M496.919,-139.8C481.611,-122.521 457.267,-95.042 442.041,-77.8562"/>
<text text-anchor="middle" x="465.98" y="-111.628" font-family="Times,serif" font-size="14.00">2</text>
</g>
<!-- a -->
<g id="node5" class="node"><title>a</title>
<ellipse fill="none" stroke="black" cx="27" cy="-339.184" rx="27" ry="18"/>
<text text-anchor="middle" x="27" y="-334.984" font-family="Times,serif" font-size="14.00">a</text>
</g>
<!-- d&#45;&#45;a -->
<g id="edge3" class="edge"><title>d&#45;&#45;a</title>
<path fill="none" stroke="black" d="M487.285,-164.62C405.114,-195.784 132.725,-299.087 50.6242,-330.224"/>
<text text-anchor="middle" x="261.955" y="-250.222" font-family="Times,serif" font-size="14.00">10</text>
</g>
<!-- e -->
<g id="node13" class="node"><title>e</title>
<ellipse fill="none" stroke="black" cx="540.816" cy="-276.795" rx="27" ry="18"/>
<text text-anchor="middle" x="540.816" y="-272.595" font-family="Times,serif" font-size="14.00">e</text>
</g>
<!-- d&#45;&#45;e -->
<g id="edge2" class="edge"><title>d&#45;&#45;e</title>
<path fill="none" stroke="black" stroke-dasharray="5,2" d="M515.361,-173.52C521.007,-196.426 530.738,-235.904 536.392,-258.845"/>
<text text-anchor="middle" x="522.377" y="-218.983" font-family="Times,serif" font-size="14.00">2</text>
</g>
<!-- i -->
<g id="node2" class="node"><title>i</title>
<ellipse fill="none" stroke="black" cx="187.676" cy="-520.55" rx="27" ry="18"/>
<text text-anchor="middle" x="187.676" y="-516.35" font-family="Times,serif" font-size="14.00">i</text>
</g>
<!-- i&#45;&#45;a -->
<g id="edge5" class="edge"><title>i&#45;&#45;a</title>
<path fill="none" stroke="black" d="M173.699,-504.772C143.235,-470.385 71.161,-389.031 40.8312,-354.796"/>
<text text-anchor="middle" x="100.265" y="-418.584" font-family="Times,serif" font-size="14.00">10</text>
</g>
<!-- j -->
<g id="node7" class="node"><title>j</title>
<ellipse fill="none" stroke="black" cx="84.9868" cy="-449.668" rx="27" ry="18"/>
<text text-anchor="middle" x="84.9868" y="-445.468" font-family="Times,serif" font-size="14.00">j</text>
</g>
<!-- i&#45;&#45;j -->
<g id="edge4" class="edge"><title>i&#45;&#45;j</title>
<path fill="none" stroke="black" stroke-dasharray="5,2" d="M168.842,-507.549C150.429,-494.84 122.541,-475.59 104.05,-462.827"/>
<text text-anchor="middle" x="132.946" y="-487.988" font-family="Times,serif" font-size="14.00">2</text>
</g>
<!-- h -->
<g id="node8" class="node"><title>h</title>
<ellipse fill="none" stroke="black" cx="311.544" cy="-535.59" rx="27" ry="18"/>
<text text-anchor="middle" x="311.544" y="-531.39" font-family="Times,serif" font-size="14.00">h</text>
</g>
<!-- i&#45;&#45;h -->
<g id="edge6" class="edge"><title>i&#45;&#45;h</title>
<path fill="none" stroke="black" stroke-dasharray="5,2" d="M214.249,-523.776C235.006,-526.297 263.733,-529.785 284.588,-532.317"/>
<text text-anchor="middle" x="245.918" y="-530.847" font-family="Times,serif" font-size="14.00">2</text>
</g>
<!-- c&#45;&#45;a -->
<g id="edge8" class="edge"><title>c&#45;&#45;a</title>
<path fill="none" stroke="black" d="M409.399,-75.2324C342.007,-121.75 113.099,-279.753 45.7725,-326.226"/>
<text text-anchor="middle" x="220.586" y="-203.529" font-family="Times,serif" font-size="14.00">10</text>
</g>
<!-- b -->
<g id="node6" class="node"><title>b</title>
<ellipse fill="none" stroke="black" cx="311.544" cy="-18" rx="27" ry="18"/>
<text text-anchor="middle" x="311.544" y="-13.8" font-family="Times,serif" font-size="14.00">b</text>
</g>
<!-- c&#45;&#45;b -->
<g id="edge7" class="edge"><title>c&#45;&#45;b</title>
<path fill="none" stroke="black" stroke-dasharray="5,2" d="M404.603,-53.2926C384.361,-45.6161 355.35,-34.6134 335.118,-26.9406"/>
<text text-anchor="middle" x="366.361" y="-42.9166" font-family="Times,serif" font-size="14.00">2</text>
</g>
<!-- l -->
<g id="node4" class="node"><title>l</title>
<ellipse fill="none" stroke="black" cx="84.9868" cy="-103.922" rx="27" ry="18"/>
<text text-anchor="middle" x="84.9868" y="-99.7217" font-family="Times,serif" font-size="14.00">l</text>
</g>
<!-- l&#45;&#45;a -->
<g id="edge11" class="edge"><title>l&#45;&#45;a</title>
<path fill="none" stroke="black" d="M80.533,-121.992C69.7128,-165.891 42.1433,-277.745 31.3896,-321.374"/>
<text text-anchor="middle" x="62.9613" y="-224.483" font-family="Times,serif" font-size="14.00">10</text>
</g>
<!-- m -->
<g id="node10" class="node"><title>m</title>
<ellipse fill="none" stroke="black" cx="187.676" cy="-33.0402" rx="27" ry="18"/>
<text text-anchor="middle" x="187.676" y="-28.8402" font-family="Times,serif" font-size="14.00">m</text>
</g>
<!-- l&#45;&#45;m -->
<g id="edge9" class="edge"><title>l&#45;&#45;m</title>
<path fill="none" stroke="black" stroke-dasharray="5,2" d="M103.822,-90.921C122.234,-78.2116 150.123,-58.9617 168.613,-46.1986"/>
<text text-anchor="middle" x="132.717" y="-71.3598" font-family="Times,serif" font-size="14.00">2</text>
</g>
<!-- k -->
<g id="node12" class="node"><title>k</title>
<ellipse fill="none" stroke="black" cx="27" cy="-214.406" rx="27" ry="18"/>
<text text-anchor="middle" x="27" y="-210.206" font-family="Times,serif" font-size="14.00">k</text>
</g>
<!-- l&#45;&#45;k -->
<g id="edge10" class="edge"><title>l&#45;&#45;k</title>
<path fill="none" stroke="black" stroke-dasharray="5,2" d="M75.9264,-121.185C65.0326,-141.941 46.8622,-176.562 35.9968,-197.264"/>
<text text-anchor="middle" x="52.4616" y="-162.025" font-family="Times,serif" font-size="14.00">2</text>
</g>
<!-- a&#45;&#45;b -->
<g id="edge13" class="edge"><title>a&#45;&#45;b</title>
<path fill="none" stroke="black" d="M41.1106,-323.256C89.6667,-268.448 249.512,-88.0192 297.684,-33.6449"/>
<text text-anchor="middle" x="162.397" y="-181.251" font-family="Times,serif" font-size="14.00">10</text>
</g>
<!-- a&#45;&#45;j -->
<g id="edge14" class="edge"><title>a&#45;&#45;j</title>
<path fill="none" stroke="black" d="M36.0604,-356.447C46.9542,-377.203 65.1247,-411.824 75.99,-432.526"/>
<text text-anchor="middle" x="49.0252" y="-397.287" font-family="Times,serif" font-size="14.00">10</text>
</g>
<!-- a&#45;&#45;h -->
<g id="edge15" class="edge"><title>a&#45;&#45;h</title>
<path fill="none" stroke="black" d="M46.1116,-352.375C97.9477,-388.155 240.777,-486.743 292.515,-522.456"/>
<text text-anchor="middle" x="162.314" y="-440.216" font-family="Times,serif" font-size="14.00">10</text>
</g>
<!-- g -->
<g id="node9" class="node"><title>g</title>
<ellipse fill="none" stroke="black" cx="428.213" cy="-491.343" rx="27" ry="18"/>
<text text-anchor="middle" x="428.213" y="-487.143" font-family="Times,serif" font-size="14.00">g</text>
</g>
<!-- a&#45;&#45;g -->
<g id="edge16" class="edge"><title>a&#45;&#45;g</title>
<path fill="none" stroke="black" d="M50.5998,-348.134C121.736,-375.112 333.545,-455.441 404.642,-482.405"/>
<text text-anchor="middle" x="220.621" y="-418.069" font-family="Times,serif" font-size="14.00">10</text>
</g>
<!-- a&#45;&#45;m -->
<g id="edge17" class="edge"><title>a&#45;&#45;m</title>
<path fill="none" stroke="black" d="M36.099,-321.847C64.3798,-267.962 150.533,-103.811 178.677,-50.1868"/>
<text text-anchor="middle" x="100.388" y="-188.817" font-family="Times,serif" font-size="14.00">10</text>
</g>
<!-- f -->
<g id="node11" class="node"><title>f</title>
<ellipse fill="none" stroke="black" cx="510.955" cy="-397.946" rx="27" ry="18"/>
<text text-anchor="middle" x="510.955" y="-393.746" font-family="Times,serif" font-size="14.00">f</text>
</g>
<!-- a&#45;&#45;f -->
<g id="edge12" class="edge"><title>a&#45;&#45;f</title>
<path fill="none" stroke="black" d="M53.7089,-342.427C138.321,-352.7 399.831,-384.454 484.329,-394.713"/>
<text text-anchor="middle" x="262.019" y="-371.37" font-family="Times,serif" font-size="14.00">10</text>
</g>
<!-- a&#45;&#45;k -->
<g id="edge18" class="edge"><title>a&#45;&#45;k</title>
<path fill="none" stroke="black" d="M27,-321.04C27,-297.383 27,-256.24 27,-232.572"/>
<text text-anchor="middle" x="20" y="-279.606" font-family="Times,serif" font-size="14.00">10</text>
</g>
<!-- a&#45;&#45;e -->
<g id="edge19" class="edge"><title>a&#45;&#45;e</title>
<path fill="none" stroke="black" d="M53.9016,-335.917C142.691,-325.136 425.781,-290.763 514.181,-280.029"/>
<text text-anchor="middle" x="277.041" y="-310.773" font-family="Times,serif" font-size="14.00">10</text>
</g>
<!-- b&#45;&#45;m -->
<g id="edge20" class="edge"><title>b&#45;&#45;m</title>
<path fill="none" stroke="black" stroke-dasharray="5,2" d="M284.971,-21.2265C264.214,-23.7469 235.487,-27.235 214.633,-29.7672"/>
<text text-anchor="middle" x="246.302" y="-28.2968" font-family="Times,serif" font-size="14.00">2</text>
</g>
<!-- j&#45;&#45;k -->
<g id="edge21" class="edge"><title>j&#45;&#45;k</title>
<path fill="none" stroke="black" stroke-dasharray="5,2" d="M80.533,-431.598C69.7128,-387.699 42.1433,-275.845 31.3896,-232.216"/>
<text text-anchor="middle" x="59.4613" y="-334.707" font-family="Times,serif" font-size="14.00">2</text>
</g>
<!-- h&#45;&#45;g -->
<g id="edge22" class="edge"><title>h&#45;&#45;g</title>
<path fill="none" stroke="black" stroke-dasharray="5,2" d="M335.154,-526.636C355.395,-518.96 384.407,-507.957 404.638,-500.284"/>
<text text-anchor="middle" x="366.396" y="-516.26" font-family="Times,serif" font-size="14.00">2</text>
</g>
<!-- g&#45;&#45;f -->
<g id="edge23" class="edge"><title>g&#45;&#45;f</title>
<path fill="none" stroke="black" stroke-dasharray="5,2" d="M442.249,-475.5C457.556,-458.221 481.901,-430.742 497.126,-413.556"/>
<text text-anchor="middle" x="466.187" y="-447.328" font-family="Times,serif" font-size="14.00">2</text>
</g>
<!-- f&#45;&#45;e -->
<g id="edge24" class="edge"><title>f&#45;&#45;e</title>
<path fill="none" stroke="black" stroke-dasharray="5,2" d="M515.361,-380.07C521.007,-357.164 530.738,-317.686 536.392,-294.745"/>
<text text-anchor="middle" x="522.377" y="-340.207" font-family="Times,serif" font-size="14.00">2</text>
</g>
</g>
</svg>
