<?xml version="1.0" encoding="UTF-8" standalone="no"?>
<!DOCTYPE svg PUBLIC "-//W3C//DTD SVG 1.1//EN"
 "http://www.w3.org/Graphics/SVG/1.1/DTD/svg11.dtd">
<!-- Generated by graphviz version 2.38.0 (20140413.2041)
 -->
<!-- Title: %3 Pages: 1 -->
<svg width="576pt" height="584pt"
 viewBox="0.00 0.00 575.82 583.59" xmlns="http://www.w3.org/2000/svg" xmlns:xlink="http://www.w3.org/1999/xlink">
<g id="graph0" class="graph" transform="scale(1 1) rotate(0) translate(4 579.59)">
<title>%3</title>
<polygon fill="white" stroke="none" points="-4,4 -4,-579.59 571.816,-579.59 571.816,4 -4,4"/>
<text text-anchor="middle" x="283.908" y="-560.39" font-family="Times,serif" font-size="14.00">Base Graph: Distances</text>
<!-- i -->
<g id="node1" class="node"><title>i</title>
<ellipse fill="none" stroke="black" cx="510.955" cy="-397.946" rx="27" ry="18"/>
<text text-anchor="middle" x="510.955" y="-393.746" font-family="Times,serif" font-size="14.00">i</text>
</g>
<!-- h -->
<g id="node3" class="node"><title>h</title>
<ellipse fill="none" stroke="black" cx="428.213" cy="-491.343" rx="27" ry="18"/>
<text text-anchor="middle" x="428.213" y="-487.143" font-family="Times,serif" font-size="14.00">h</text>
</g>
<!-- i&#45;&#45;h -->
<g id="edge1" class="edge"><title>i&#45;&#45;h</title>
<path fill="none" stroke="black" stroke-dasharray="5,2" d="M496.919,-413.79C481.611,-431.069 457.267,-458.548 442.041,-475.734"/>
<text text-anchor="middle" x="465.98" y="-447.562" font-family="Times,serif" font-size="14.00">2</text>
</g>
<!-- a -->
<g id="node9" class="node"><title>a</title>
<ellipse fill="none" stroke="black" cx="27" cy="-339.184" rx="27" ry="18"/>
<text text-anchor="middle" x="27" y="-334.984" font-family="Times,serif" font-size="14.00">a</text>
</g>
<!-- i&#45;&#45;a -->
<g id="edge3" class="edge"><title>i&#45;&#45;a</title>
<path fill="none" stroke="black" d="M484.246,-394.703C399.634,-384.43 138.124,-352.676 53.6263,-342.417"/>
<text text-anchor="middle" x="261.936" y="-371.36" font-family="Times,serif" font-size="14.00">10</text>
</g>
<!-- j -->
<g id="node10" class="node"><title>j</title>
<ellipse fill="none" stroke="black" cx="540.816" cy="-276.795" rx="27" ry="18"/>
<text text-anchor="middle" x="540.816" y="-272.595" font-family="Times,serif" font-size="14.00">j</text>
</g>
<!-- i&#45;&#45;j -->
<g id="edge2" class="edge"><title>i&#45;&#45;j</title>
<path fill="none" stroke="black" stroke-dasharray="5,2" d="M515.361,-380.07C521.007,-357.164 530.738,-317.686 536.392,-294.745"/>
<text text-anchor="middle" x="522.377" y="-340.207" font-family="Times,serif" font-size="14.00">2</text>
</g>
<!-- c -->
<g id="node2" class="node"><title>c</title>
<ellipse fill="none" stroke="black" cx="84.9868" cy="-103.922" rx="27" ry="18"/>
<text text-anchor="middle" x="84.9868" y="-99.7217" font-family="Times,serif" font-size="14.00">c</text>
</g>
<!-- b -->
<g id="node6" class="node"><title>b</title>
<ellipse fill="none" stroke="black" cx="27" cy="-214.406" rx="27" ry="18"/>
<text text-anchor="middle" x="27" y="-210.206" font-family="Times,serif" font-size="14.00">b</text>
</g>
<!-- c&#45;&#45;b -->
<g id="edge6" class="edge"><title>c&#45;&#45;b</title>
<path fill="none" stroke="black" stroke-dasharray="5,2" d="M75.9264,-121.185C65.0326,-141.941 46.8622,-176.562 35.9968,-197.264"/>
<text text-anchor="middle" x="52.4616" y="-162.025" font-family="Times,serif" font-size="14.00">2</text>
</g>
<!-- d -->
<g id="node8" class="node"><title>d</title>
<ellipse fill="none" stroke="black" cx="187.676" cy="-33.0402" rx="27" ry="18"/>
<text text-anchor="middle" x="187.676" y="-28.8402" font-family="Times,serif" font-size="14.00">d</text>
</g>
<!-- c&#45;&#45;d -->
<g id="edge4" class="edge"><title>c&#45;&#45;d</title>
<path fill="none" stroke="black" stroke-dasharray="5,2" d="M103.822,-90.921C122.234,-78.2116 150.123,-58.9617 168.613,-46.1986"/>
<text text-anchor="middle" x="132.717" y="-71.3598" font-family="Times,serif" font-size="14.00">2</text>
</g>
<!-- c&#45;&#45;a -->
<g id="edge5" class="edge"><title>c&#45;&#45;a</title>
<path fill="none" stroke="black" d="M80.533,-121.992C69.7128,-165.891 42.1433,-277.745 31.3896,-321.374"/>
<text text-anchor="middle" x="62.9613" y="-224.483" font-family="Times,serif" font-size="14.00">10</text>
</g>
<!-- h&#45;&#45;a -->
<g id="edge8" class="edge"><title>h&#45;&#45;a</title>
<path fill="none" stroke="black" d="M404.613,-482.393C333.476,-455.415 121.668,-375.086 50.5701,-348.123"/>
<text text-anchor="middle" x="220.591" y="-418.058" font-family="Times,serif" font-size="14.00">10</text>
</g>
<!-- g -->
<g id="node12" class="node"><title>g</title>
<ellipse fill="none" stroke="black" cx="510.955" cy="-155.644" rx="27" ry="18"/>
<text text-anchor="middle" x="510.955" y="-151.444" font-family="Times,serif" font-size="14.00">g</text>
</g>
<!-- h&#45;&#45;g -->
<g id="edge7" class="edge"><title>h&#45;&#45;g</title>
<path fill="none" stroke="black" stroke-dasharray="5,2" d="M432.661,-473.295C447.028,-415.006 492.086,-232.197 506.485,-173.782"/>
<text text-anchor="middle" x="466.073" y="-326.338" font-family="Times,serif" font-size="14.00">2</text>
</g>
<!-- m -->
<g id="node4" class="node"><title>m</title>
<ellipse fill="none" stroke="black" cx="84.9868" cy="-449.668" rx="27" ry="18"/>
<text text-anchor="middle" x="84.9868" y="-445.468" font-family="Times,serif" font-size="14.00">m</text>
</g>
<!-- l -->
<g id="node5" class="node"><title>l</title>
<ellipse fill="none" stroke="black" cx="187.676" cy="-520.55" rx="27" ry="18"/>
<text text-anchor="middle" x="187.676" y="-516.35" font-family="Times,serif" font-size="14.00">l</text>
</g>
<!-- m&#45;&#45;l -->
<g id="edge9" class="edge"><title>m&#45;&#45;l</title>
<path fill="none" stroke="black" stroke-dasharray="5,2" d="M103.822,-462.669C122.234,-475.378 150.123,-494.628 168.613,-507.391"/>
<text text-anchor="middle" x="132.717" y="-487.83" font-family="Times,serif" font-size="14.00">2</text>
</g>
<!-- m&#45;&#45;b -->
<g id="edge11" class="edge"><title>m&#45;&#45;b</title>
<path fill="none" stroke="black" stroke-dasharray="5,2" d="M80.533,-431.598C69.7128,-387.699 42.1433,-275.845 31.3896,-232.216"/>
<text text-anchor="middle" x="59.4613" y="-334.707" font-family="Times,serif" font-size="14.00">2</text>
</g>
<!-- m&#45;&#45;a -->
<g id="edge10" class="edge"><title>m&#45;&#45;a</title>
<path fill="none" stroke="black" d="M75.9264,-432.405C65.0326,-411.649 46.8622,-377.028 35.9968,-356.326"/>
<text text-anchor="middle" x="48.9616" y="-397.165" font-family="Times,serif" font-size="14.00">10</text>
</g>
<!-- l&#45;&#45;a -->
<g id="edge13" class="edge"><title>l&#45;&#45;a</title>
<path fill="none" stroke="black" d="M173.699,-504.772C143.235,-470.385 71.161,-389.031 40.8312,-354.796"/>
<text text-anchor="middle" x="100.265" y="-418.584" font-family="Times,serif" font-size="14.00">10</text>
</g>
<!-- k -->
<g id="node11" class="node"><title>k</title>
<ellipse fill="none" stroke="black" cx="311.544" cy="-535.59" rx="27" ry="18"/>
<text text-anchor="middle" x="311.544" y="-531.39" font-family="Times,serif" font-size="14.00">k</text>
</g>
<!-- l&#45;&#45;k -->
<g id="edge12" class="edge"><title>l&#45;&#45;k</title>
<path fill="none" stroke="black" stroke-dasharray="5,2" d="M214.249,-523.776C235.006,-526.297 263.733,-529.785 284.588,-532.317"/>
<text text-anchor="middle" x="245.918" y="-530.847" font-family="Times,serif" font-size="14.00">2</text>
</g>
<!-- b&#45;&#45;a -->
<g id="edge14" class="edge"><title>b&#45;&#45;a</title>
<path fill="none" stroke="black" d="M27,-232.55C27,-256.207 27,-297.35 27,-321.018"/>
<text text-anchor="middle" x="20" y="-279.584" font-family="Times,serif" font-size="14.00">10</text>
</g>
<!-- f -->
<g id="node7" class="node"><title>f</title>
<ellipse fill="none" stroke="black" cx="428.213" cy="-62.2466" rx="27" ry="18"/>
<text text-anchor="middle" x="428.213" y="-58.0466" font-family="Times,serif" font-size="14.00">f</text>
</g>
<!-- f&#45;&#45;a -->
<g id="edge17" class="edge"><title>f&#45;&#45;a</title>
<path fill="none" stroke="black" d="M409.399,-75.2324C342.007,-121.75 113.099,-279.753 45.7725,-326.226"/>
<text text-anchor="middle" x="220.586" y="-203.529" font-family="Times,serif" font-size="14.00">10</text>
</g>
<!-- f&#45;&#45;g -->
<g id="edge15" class="edge"><title>f&#45;&#45;g</title>
<path fill="none" stroke="black" stroke-dasharray="5,2" d="M442.249,-78.0901C457.556,-95.3688 481.901,-122.848 497.126,-140.034"/>
<text text-anchor="middle" x="466.187" y="-111.862" font-family="Times,serif" font-size="14.00">2</text>
</g>
<!-- e -->
<g id="node13" class="node"><title>e</title>
<ellipse fill="none" stroke="black" cx="311.544" cy="-18" rx="27" ry="18"/>
<text text-anchor="middle" x="311.544" y="-13.8" font-family="Times,serif" font-size="14.00">e</text>
</g>
<!-- f&#45;&#45;e -->
<g id="edge16" class="edge"><title>f&#45;&#45;e</title>
<path fill="none" stroke="black" stroke-dasharray="5,2" d="M404.603,-53.2926C384.361,-45.6161 355.35,-34.6134 335.118,-26.9406"/>
<text text-anchor="middle" x="366.361" y="-42.9166" font-family="Times,serif" font-size="14.00">2</text>
</g>
<!-- d&#45;&#45;a -->
<g id="edge19" class="edge"><title>d&#45;&#45;a</title>
<path fill="none" stroke="black" d="M178.577,-50.377C150.297,-104.262 64.1434,-268.413 35.9992,-322.037"/>
<text text-anchor="middle" x="100.288" y="-189.007" font-family="Times,serif" font-size="14.00">10</text>
</g>
<!-- d&#45;&#45;e -->
<g id="edge18" class="edge"><title>d&#45;&#45;e</title>
<path fill="none" stroke="black" stroke-dasharray="5,2" d="M214.249,-29.8137C235.006,-27.2933 263.733,-23.8053 284.588,-21.2731"/>
<text text-anchor="middle" x="245.918" y="-28.3434" font-family="Times,serif" font-size="14.00">2</text>
</g>
<!-- a&#45;&#45;j -->
<g id="edge20" class="edge"><title>a&#45;&#45;j</title>
<path fill="none" stroke="black" d="M53.9016,-335.917C142.691,-325.136 425.781,-290.763 514.181,-280.029"/>
<text text-anchor="middle" x="277.041" y="-310.773" font-family="Times,serif" font-size="14.00">10</text>
</g>
<!-- a&#45;&#45;k -->
<g id="edge21" class="edge"><title>a&#45;&#45;k</title>
<path fill="none" stroke="black" d="M46.1116,-352.375C97.9477,-388.155 240.777,-486.743 292.515,-522.456"/>
<text text-anchor="middle" x="162.314" y="-440.216" font-family="Times,serif" font-size="14.00">10</text>
</g>
<!-- a&#45;&#45;g -->
<g id="edge22" class="edge"><title>a&#45;&#45;g</title>
<path fill="none" stroke="black" d="M50.6698,-330.207C132.841,-299.043 405.23,-195.74 487.331,-164.603"/>
<text text-anchor="middle" x="262" y="-250.205" font-family="Times,serif" font-size="14.00">10</text>
</g>
<!-- a&#45;&#45;e -->
<g id="edge23" class="edge"><title>a&#45;&#45;e</title>
<path fill="none" stroke="black" d="M41.1106,-323.256C89.6667,-268.448 249.512,-88.0192 297.684,-33.6449"/>
<text text-anchor="middle" x="162.397" y="-181.251" font-family="Times,serif" font-size="14.00">10</text>
</g>
<!-- j&#45;&#45;k -->
<g id="edge24" class="edge"><title>j&#45;&#45;k</title>
<path fill="none" stroke="black" stroke-dasharray="5,2" d="M526.819,-292.594C485.791,-338.906 366.151,-473.952 325.358,-519.998"/>
<text text-anchor="middle" x="422.588" y="-409.096" font-family="Times,serif" font-size="14.00">2</text>
</g>
</g>
</svg>
