<?xml version="1.0" encoding="UTF-8" standalone="no"?>
<!DOCTYPE svg PUBLIC "-//W3C//DTD SVG 1.1//EN"
 "http://www.w3.org/Graphics/SVG/1.1/DTD/svg11.dtd">
<!-- Generated by graphviz version 2.40.1 (20161225.0304)
 -->
<!-- Title: %3 Pages: 1 -->
<svg width="562pt" height="447pt"
 viewBox="0.00 0.00 562.07 447.44" xmlns="http://www.w3.org/2000/svg" xmlns:xlink="http://www.w3.org/1999/xlink">
<g id="graph0" class="graph" transform="scale(1 1) rotate(0) translate(4 443.4407)">
<title>%3</title>
<polygon fill="#ffffff" stroke="transparent" points="-4,4 -4,-443.4407 558.0705,-443.4407 558.0705,4 -4,4"/>
<text text-anchor="middle" x="277.0352" y="-424.2407" font-family="Times,serif" font-size="14.00" fill="#000000">Base Graph: Distances</text>
<!-- 0 -->
<g id="node1" class="node">
<title>0</title>
<ellipse fill="none" stroke="#000000" cx="27" cy="-208.7203" rx="27" ry="18"/>
<text text-anchor="middle" x="27" y="-204.5203" font-family="Times,serif" font-size="14.00" fill="#000000">0</text>
</g>
<!-- 1 -->
<g id="node2" class="node">
<title>1</title>
<ellipse fill="none" stroke="#000000" cx="389.7716" cy="-90.8487" rx="27" ry="18"/>
<text text-anchor="middle" x="389.7716" y="-86.6487" font-family="Times,serif" font-size="14.00" fill="#000000">1</text>
</g>
<!-- 0&#45;&#45;1 -->
<g id="edge1" class="edge">
<title>0&#45;&#45;1</title>
<path fill="none" stroke="#000000" d="M51.3658,-200.8034C117.294,-179.382 298.6744,-120.448 365.0342,-98.8864"/>
<text text-anchor="middle" x="201.2" y="-152.6449" font-family="Times,serif" font-size="14.00" fill="#000000">10</text>
</g>
<!-- 2 -->
<g id="node3" class="node">
<title>2</title>
<ellipse fill="none" stroke="#000000" cx="289.504" cy="-18" rx="27" ry="18"/>
<text text-anchor="middle" x="289.504" y="-13.8" font-family="Times,serif" font-size="14.00" fill="#000000">2</text>
</g>
<!-- 0&#45;&#45;2 -->
<g id="edge2" class="edge">
<title>0&#45;&#45;2</title>
<path fill="none" stroke="#000000" d="M45.4588,-195.3093C93.6568,-160.2914 222.8905,-66.3975 271.0656,-31.3963"/>
<text text-anchor="middle" x="151.2622" y="-116.1528" font-family="Times,serif" font-size="14.00" fill="#000000">10</text>
</g>
<!-- 3 -->
<g id="node4" class="node">
<title>3</title>
<ellipse fill="none" stroke="#000000" cx="165.5664" cy="-18" rx="27" ry="18"/>
<text text-anchor="middle" x="165.5664" y="-13.8" font-family="Times,serif" font-size="14.00" fill="#000000">3</text>
</g>
<!-- 0&#45;&#45;3 -->
<g id="edge3" class="edge">
<title>0&#45;&#45;3</title>
<path fill="none" stroke="#000000" d="M38.8141,-192.4596C64.9932,-156.4272 127.6309,-70.2137 153.7822,-34.2196"/>
<text text-anchor="middle" x="89.2982" y="-116.1396" font-family="Times,serif" font-size="14.00" fill="#000000">10</text>
</g>
<!-- 4 -->
<g id="node5" class="node">
<title>4</title>
<ellipse fill="none" stroke="#000000" cx="65.2988" cy="-90.8487" rx="27" ry="18"/>
<text text-anchor="middle" x="65.2988" y="-86.6487" font-family="Times,serif" font-size="14.00" fill="#000000">4</text>
</g>
<!-- 0&#45;&#45;4 -->
<g id="edge4" class="edge">
<title>0&#45;&#45;4</title>
<path fill="none" stroke="#000000" d="M32.7337,-191.0738C39.9538,-168.8526 52.2873,-130.8939 59.5259,-108.6159"/>
<text text-anchor="middle" x="39.1298" y="-152.6448" font-family="Times,serif" font-size="14.00" fill="#000000">10</text>
</g>
<!-- 5 -->
<g id="node6" class="node">
<title>5</title>
<ellipse fill="none" stroke="#000000" cx="65.2988" cy="-326.592" rx="27" ry="18"/>
<text text-anchor="middle" x="65.2988" y="-322.392" font-family="Times,serif" font-size="14.00" fill="#000000">5</text>
</g>
<!-- 0&#45;&#45;5 -->
<g id="edge5" class="edge">
<title>0&#45;&#45;5</title>
<path fill="none" stroke="#000000" d="M32.7337,-226.3669C39.9538,-248.5881 52.2873,-286.5468 59.5259,-308.8248"/>
<text text-anchor="middle" x="39.1298" y="-270.3958" font-family="Times,serif" font-size="14.00" fill="#000000">10</text>
</g>
<!-- 6 -->
<g id="node7" class="node">
<title>6</title>
<ellipse fill="none" stroke="#000000" cx="165.5664" cy="-399.4407" rx="27" ry="18"/>
<text text-anchor="middle" x="165.5664" y="-395.2407" font-family="Times,serif" font-size="14.00" fill="#000000">6</text>
</g>
<!-- 0&#45;&#45;6 -->
<g id="edge6" class="edge">
<title>0&#45;&#45;6</title>
<path fill="none" stroke="#000000" d="M38.8141,-224.981C64.9932,-261.0135 127.6309,-347.2269 153.7822,-383.2211"/>
<text text-anchor="middle" x="89.2982" y="-292.9011" font-family="Times,serif" font-size="14.00" fill="#000000">10</text>
</g>
<!-- 7 -->
<g id="node8" class="node">
<title>7</title>
<ellipse fill="none" stroke="#000000" cx="289.504" cy="-399.4407" rx="27" ry="18"/>
<text text-anchor="middle" x="289.504" y="-395.2407" font-family="Times,serif" font-size="14.00" fill="#000000">7</text>
</g>
<!-- 0&#45;&#45;7 -->
<g id="edge7" class="edge">
<title>0&#45;&#45;7</title>
<path fill="none" stroke="#000000" d="M45.4588,-222.1314C93.6568,-257.1493 222.8905,-351.0431 271.0656,-386.0444"/>
<text text-anchor="middle" x="151.2622" y="-306.8879" font-family="Times,serif" font-size="14.00" fill="#000000">10</text>
</g>
<!-- 8 -->
<g id="node9" class="node">
<title>8</title>
<ellipse fill="none" stroke="#000000" cx="389.7716" cy="-326.592" rx="27" ry="18"/>
<text text-anchor="middle" x="389.7716" y="-322.392" font-family="Times,serif" font-size="14.00" fill="#000000">8</text>
</g>
<!-- 0&#45;&#45;8 -->
<g id="edge8" class="edge">
<title>0&#45;&#45;8</title>
<path fill="none" stroke="#000000" d="M51.3658,-216.6373C117.294,-238.0586 298.6744,-296.9927 365.0342,-318.5543"/>
<text text-anchor="middle" x="201.2" y="-270.3958" font-family="Times,serif" font-size="14.00" fill="#000000">10</text>
</g>
<!-- 9 -->
<g id="node10" class="node">
<title>9</title>
<ellipse fill="none" stroke="#000000" cx="428.0705" cy="-208.7203" rx="27" ry="18"/>
<text text-anchor="middle" x="428.0705" y="-204.5203" font-family="Times,serif" font-size="14.00" fill="#000000">9</text>
</g>
<!-- 0&#45;&#45;9 -->
<g id="edge9" class="edge">
<title>0&#45;&#45;9</title>
<path fill="none" stroke="#000000" d="M54.2519,-208.7203C127.5083,-208.7203 328.0519,-208.7203 401.0452,-208.7203"/>
<text text-anchor="middle" x="220.6485" y="-211.5203" font-family="Times,serif" font-size="14.00" fill="#000000">10</text>
</g>
<!-- 1&#45;&#45;2 -->
<g id="edge10" class="edge">
<title>1&#45;&#45;2</title>
<path fill="none" stroke="#000000" stroke-dasharray="5,2" d="M371.381,-77.4871C353.2895,-64.3429 325.8292,-44.3918 307.7781,-31.2769"/>
<text text-anchor="middle" x="336.0795" y="-57.182" font-family="Times,serif" font-size="14.00" fill="#000000">2</text>
</g>
<!-- 2&#45;&#45;3 -->
<g id="edge11" class="edge">
<title>2&#45;&#45;3</title>
<path fill="none" stroke="#000000" stroke-dasharray="5,2" d="M262.3054,-18C241.6412,-18 213.3502,-18 192.7016,-18"/>
<text text-anchor="middle" x="224.0035" y="-20.8" font-family="Times,serif" font-size="14.00" fill="#000000">2</text>
</g>
<!-- 3&#45;&#45;4 -->
<g id="edge12" class="edge">
<title>3&#45;&#45;4</title>
<path fill="none" stroke="#000000" stroke-dasharray="5,2" d="M147.1758,-31.3616C129.0843,-44.5058 101.624,-64.4569 83.5729,-77.5718"/>
<text text-anchor="middle" x="111.8743" y="-57.2667" font-family="Times,serif" font-size="14.00" fill="#000000">2</text>
</g>
<!-- 4&#45;&#45;5 -->
<g id="edge13" class="edge">
<title>4&#45;&#45;5</title>
<path fill="none" stroke="#000000" stroke-dasharray="5,2" d="M65.2988,-108.9556C65.2988,-152.8371 65.2988,-264.4785 65.2988,-308.4234"/>
<text text-anchor="middle" x="61.7988" y="-211.4895" font-family="Times,serif" font-size="14.00" fill="#000000">2</text>
</g>
<!-- 5&#45;&#45;6 -->
<g id="edge14" class="edge">
<title>5&#45;&#45;6</title>
<path fill="none" stroke="#000000" stroke-dasharray="5,2" d="M83.6894,-339.9536C101.781,-353.0978 129.2413,-373.0489 147.2924,-386.1638"/>
<text text-anchor="middle" x="111.9909" y="-365.8587" font-family="Times,serif" font-size="14.00" fill="#000000">2</text>
</g>
<!-- 6&#45;&#45;7 -->
<g id="edge15" class="edge">
<title>6&#45;&#45;7</title>
<path fill="none" stroke="#000000" stroke-dasharray="5,2" d="M192.7651,-399.4407C213.4293,-399.4407 241.7202,-399.4407 262.3688,-399.4407"/>
<text text-anchor="middle" x="224.067" y="-402.2407" font-family="Times,serif" font-size="14.00" fill="#000000">2</text>
</g>
<!-- 7&#45;&#45;8 -->
<g id="edge16" class="edge">
<title>7&#45;&#45;8</title>
<path fill="none" stroke="#000000" stroke-dasharray="5,2" d="M307.8946,-386.0791C325.9862,-372.9349 353.4465,-352.9838 371.4976,-339.8689"/>
<text text-anchor="middle" x="336.1961" y="-365.774" font-family="Times,serif" font-size="14.00" fill="#000000">2</text>
</g>
<!-- 8&#45;&#45;9 -->
<g id="edge17" class="edge">
<title>8&#45;&#45;9</title>
<path fill="none" stroke="#000000" stroke-dasharray="5,2" d="M395.5054,-308.9454C402.7255,-286.7242 415.059,-248.7655 422.2975,-226.4875"/>
<text text-anchor="middle" x="405.4014" y="-270.5165" font-family="Times,serif" font-size="14.00" fill="#000000">2</text>
</g>
<!-- 10 -->
<g id="node11" class="node">
<title>10</title>
<ellipse fill="none" stroke="#000000" cx="527.0705" cy="-208.7203" rx="27" ry="18"/>
<text text-anchor="middle" x="527.0705" y="-204.5203" font-family="Times,serif" font-size="14.00" fill="#000000">10</text>
</g>
<!-- 9&#45;&#45;10 -->
<g id="edge18" class="edge">
<title>9&#45;&#45;10</title>
<path fill="none" stroke="#000000" stroke-dasharray="5,2" d="M455.1226,-208.7203C469.0917,-208.7203 486.0867,-208.7203 500.051,-208.7203"/>
<text text-anchor="middle" x="474.0868" y="-211.5203" font-family="Times,serif" font-size="14.00" fill="#000000">2</text>
</g>
</g>
</svg>
