<?xml version="1.0" encoding="UTF-8" standalone="no"?>
<!DOCTYPE svg PUBLIC "-//W3C//DTD SVG 1.1//EN"
 "http://www.w3.org/Graphics/SVG/1.1/DTD/svg11.dtd">
<!-- Generated by graphviz version 2.38.0 (20140413.2041)
 -->
<!-- Title: %3 Pages: 1 -->
<svg width="629pt" height="503pt"
 viewBox="0.00 0.00 629.18 502.69" xmlns="http://www.w3.org/2000/svg" xmlns:xlink="http://www.w3.org/1999/xlink">
<g id="graph0" class="graph" transform="scale(1 1) rotate(0) translate(4 498.687)">
<title>%3</title>
<polygon fill="white" stroke="none" points="-4,4 -4,-498.687 625.178,-498.687 625.178,4 -4,4"/>
<text text-anchor="middle" x="310.589" y="-479.487" font-family="Times,serif" font-size="14.00">Base Graph: Chinese Postman Solution (required edges only)</text>
<!-- e -->
<g id="node1" class="node"><title>e</title>
<ellipse fill="none" stroke="black" cx="27" cy="-236.343" rx="27" ry="18"/>
<text text-anchor="middle" x="27" y="-232.143" font-family="Times,serif" font-size="14.00">e</text>
</g>
<!-- a -->
<g id="node12" class="node"><title>a</title>
<ellipse fill="none" stroke="black" cx="373.589" cy="-236.343" rx="27" ry="18"/>
<text text-anchor="middle" x="373.589" y="-232.143" font-family="Times,serif" font-size="14.00">a</text>
</g>
<!-- e&#45;&#45;a -->
<g id="0" class="edge"><title>e&#45;&#45;a</title>
<path fill="none" stroke="black" stroke-width="4" d="M54.1962,-236.343C118.986,-236.343 281.857,-236.343 346.519,-236.343"/>
<text text-anchor="middle" x="182.858" y="-239.143" font-family="Times,serif" font-size="14.00">22, 23</text>
<polyline fill="none" stroke="black" points="200.358,-236.343 165.358,-236.343 182.762,-236.343 "/>
</g>
<!-- m -->
<g id="node2" class="node"><title>m</title>
<ellipse fill="none" stroke="black" cx="229.134" cy="-69.6336" rx="27" ry="18"/>
<text text-anchor="middle" x="229.134" y="-65.4336" font-family="Times,serif" font-size="14.00">m</text>
</g>
<!-- m&#45;&#45;a -->
<g id="1" class="edge"><title>m&#45;&#45;a</title>
<path fill="none" stroke="black" stroke-width="4" d="M242.724,-85.3173C270.256,-117.091 332.34,-188.74 359.93,-220.58"/>
<text text-anchor="middle" x="283.827" y="-155.749" font-family="Times,serif" font-size="14.00">18, 19</text>
<polyline fill="none" stroke="black" points="301.327,-152.949 266.327,-152.949 297.367,-148.379 "/>
</g>
<!-- l -->
<g id="node3" class="node"><title>l</title>
<ellipse fill="none" stroke="black" cx="342.196" cy="-18" rx="27" ry="18"/>
<text text-anchor="middle" x="342.196" y="-13.8" font-family="Times,serif" font-size="14.00">l</text>
</g>
<!-- l&#45;&#45;a -->
<g id="2" class="edge"><title>l&#45;&#45;a</title>
<path fill="none" stroke="black" stroke-width="4" d="M344.818,-36.2403C350.742,-77.4426 365.1,-177.302 370.996,-218.309"/>
<text text-anchor="middle" x="340.407" y="-130.074" font-family="Times,serif" font-size="14.00">14, 15</text>
<polyline fill="none" stroke="black" points="357.907,-127.274 322.907,-127.274 358.511,-131.477 "/>
</g>
<!-- k -->
<g id="node4" class="node"><title>k</title>
<ellipse fill="none" stroke="black" cx="465.225" cy="-35.6889" rx="27" ry="18"/>
<text text-anchor="middle" x="465.225" y="-31.4889" font-family="Times,serif" font-size="14.00">k</text>
</g>
<!-- k&#45;&#45;a -->
<g id="3" class="edge"><title>k&#45;&#45;a</title>
<path fill="none" stroke="black" stroke-width="4" d="M457.253,-53.1447C439.879,-91.1884 398.774,-181.195 381.477,-219.071"/>
<text text-anchor="middle" x="401.865" y="-138.908" font-family="Times,serif" font-size="14.00">12, 13</text>
<polyline fill="none" stroke="black" points="419.365,-136.108 384.365,-136.108 413.699,-148.513 "/>
</g>
<!-- b -->
<g id="node5" class="node"><title>b</title>
<ellipse fill="none" stroke="black" cx="559.16" cy="-117.084" rx="27" ry="18"/>
<text text-anchor="middle" x="559.16" y="-112.884" font-family="Times,serif" font-size="14.00">b</text>
</g>
<!-- b&#45;&#45;a -->
<g id="8" class="edge"><title>b&#45;&#45;a</title>
<path fill="none" stroke="black" stroke-width="4" d="M539.651,-129.622C504.011,-152.526 428.768,-200.882 393.114,-223.795"/>
<text text-anchor="middle" x="449.139" y="-179.508" font-family="Times,serif" font-size="14.00">10, 11</text>
<polyline fill="none" stroke="black" points="466.383,-176.708 431.896,-176.708 451.18,-186.479 "/>
</g>
<!-- h -->
<g id="node6" class="node"><title>h</title>
<ellipse fill="none" stroke="black" cx="594.178" cy="-236.343" rx="27" ry="18"/>
<text text-anchor="middle" x="594.178" y="-232.143" font-family="Times,serif" font-size="14.00">h</text>
</g>
<!-- h&#45;&#45;a -->
<g id="5" class="edge"><title>h&#45;&#45;a</title>
<path fill="none" stroke="black" stroke-width="4" d="M567.129,-236.343C524.792,-236.343 443.331,-236.343 400.859,-236.343"/>
<text text-anchor="middle" x="473.494" y="-239.143" font-family="Times,serif" font-size="14.00">6, 7</text>
<polyline fill="none" stroke="black" points="483.994,-236.343 462.994,-236.343 473.173,-236.343 "/>
</g>
<!-- g -->
<g id="node7" class="node"><title>g</title>
<ellipse fill="none" stroke="black" cx="559.16" cy="-355.603" rx="27" ry="18"/>
<text text-anchor="middle" x="559.16" y="-351.403" font-family="Times,serif" font-size="14.00">g</text>
</g>
<!-- g&#45;&#45;a -->
<g id="6" class="edge"><title>g&#45;&#45;a</title>
<path fill="none" stroke="black" stroke-width="4" d="M539.651,-343.065C504.011,-320.161 428.768,-271.805 393.114,-248.892"/>
<text text-anchor="middle" x="448.883" y="-298.779" font-family="Times,serif" font-size="14.00">20, 21</text>
<polyline fill="none" stroke="black" points="466.383,-295.979 431.383,-295.979 457.304,-290.144 "/>
</g>
<!-- d -->
<g id="node8" class="node"><title>d</title>
<ellipse fill="none" stroke="black" cx="465.225" cy="-436.998" rx="27" ry="18"/>
<text text-anchor="middle" x="465.225" y="-432.798" font-family="Times,serif" font-size="14.00">d</text>
</g>
<!-- d&#45;&#45;a -->
<g id="7" class="edge"><title>d&#45;&#45;a</title>
<path fill="none" stroke="black" stroke-width="4" d="M457.253,-419.542C439.879,-381.499 398.774,-291.492 381.477,-253.616"/>
<text text-anchor="middle" x="408.865" y="-339.379" font-family="Times,serif" font-size="14.00">2, 3</text>
<polyline fill="none" stroke="black" points="419.365,-336.579 398.365,-336.579 420.192,-338.391 "/>
</g>
<!-- i -->
<g id="node9" class="node"><title>i</title>
<ellipse fill="none" stroke="black" cx="342.196" cy="-454.687" rx="27" ry="18"/>
<text text-anchor="middle" x="342.196" y="-450.487" font-family="Times,serif" font-size="14.00">i</text>
</g>
<!-- i&#45;&#45;a -->
<g id="4" class="edge"><title>i&#45;&#45;a</title>
<path fill="none" stroke="black" stroke-width="4" d="M344.818,-436.447C350.742,-395.244 365.1,-295.385 370.996,-254.378"/>
<text text-anchor="middle" x="340.407" y="-348.212" font-family="Times,serif" font-size="14.00">16, 17</text>
<polyline fill="none" stroke="black" points="357.907,-345.412 322.907,-345.412 356.553,-354.828 "/>
</g>
<!-- j -->
<g id="node10" class="node"><title>j</title>
<ellipse fill="none" stroke="black" cx="229.134" cy="-403.053" rx="27" ry="18"/>
<text text-anchor="middle" x="229.134" y="-398.853" font-family="Times,serif" font-size="14.00">j</text>
</g>
<!-- j&#45;&#45;a -->
<g id="9" class="edge"><title>j&#45;&#45;a</title>
<path fill="none" stroke="black" stroke-width="4" d="M242.724,-387.37C270.256,-355.596 332.34,-283.947 359.93,-252.107"/>
<text text-anchor="middle" x="290.827" y="-322.538" font-family="Times,serif" font-size="14.00">8, 9</text>
<polyline fill="none" stroke="black" points="301.327,-319.738 280.327,-319.738 293.44,-328.84 "/>
</g>
<!-- c -->
<g id="node11" class="node"><title>c</title>
<ellipse fill="none" stroke="black" cx="161.935" cy="-298.491" rx="27" ry="18"/>
<text text-anchor="middle" x="161.935" y="-294.291" font-family="Times,serif" font-size="14.00">c</text>
</g>
<!-- c&#45;&#45;a -->
<g id="10" class="edge"><title>c&#45;&#45;a</title>
<path fill="none" stroke="black" stroke-width="4" d="M187.046,-291.117C227.89,-279.124 308.228,-255.535 348.838,-243.611"/>
<text text-anchor="middle" x="257.442" y="-270.164" font-family="Times,serif" font-size="14.00">4, 5</text>
<polyline fill="none" stroke="black" points="267.942,-267.364 246.942,-267.364 256.345,-270.769 "/>
</g>
<!-- f -->
<g id="node13" class="node"><title>f</title>
<ellipse fill="none" stroke="black" cx="161.935" cy="-174.196" rx="27" ry="18"/>
<text text-anchor="middle" x="161.935" y="-169.996" font-family="Times,serif" font-size="14.00">f</text>
</g>
<!-- a&#45;&#45;f -->
<g id="11" class="edge"><title>a&#45;&#45;f</title>
<path fill="none" stroke="black" stroke-width="4" d="M348.478,-228.97C307.634,-216.977 227.296,-193.388 186.686,-181.464"/>
<text text-anchor="middle" x="257.082" y="-208.017" font-family="Times,serif" font-size="14.00">0, 1</text>
<polyline fill="none" stroke="black" points="267.582,-205.217 246.582,-205.217 259.698,-202.902 "/>
</g>
</g>
</svg>
