<?xml version="1.0" encoding="UTF-8" standalone="no"?>
<!DOCTYPE svg PUBLIC "-//W3C//DTD SVG 1.1//EN"
 "http://www.w3.org/Graphics/SVG/1.1/DTD/svg11.dtd">
<!-- Generated by graphviz version 2.40.1 (20161225.0304)
 -->
<!-- Title: %3 Pages: 1 -->
<svg width="543pt" height="547pt"
 viewBox="0.00 0.00 543.28 547.28" xmlns="http://www.w3.org/2000/svg" xmlns:xlink="http://www.w3.org/1999/xlink">
<g id="graph0" class="graph" transform="scale(1 1) rotate(0) translate(4 543.2845)">
<title>%3</title>
<polygon fill="#ffffff" stroke="transparent" points="-4,4 -4,-543.2845 539.2845,-543.2845 539.2845,4 -4,4"/>
<text text-anchor="middle" x="267.6423" y="-524.0845" font-family="Times,serif" font-size="14.00" fill="#000000">Base Graph: Chinese Postman Solution (required edges only)</text>
<!-- a -->
<g id="node1" class="node">
<title>a</title>
<ellipse fill="none" stroke="#000000" cx="267.6423" cy="-258.6423" rx="27" ry="18"/>
<text text-anchor="middle" x="267.6423" y="-254.4423" font-family="Times,serif" font-size="14.00" fill="#000000">a</text>
</g>
<!-- b -->
<g id="node2" class="node">
<title>b</title>
<ellipse fill="none" stroke="#000000" cx="508.2845" cy="-258.6423" rx="27" ry="18"/>
<text text-anchor="middle" x="508.2845" y="-254.4423" font-family="Times,serif" font-size="14.00" fill="#000000">b</text>
</g>
<!-- a&#45;&#45;b -->
<g id="0" class="edge">
<title>a&#45;&#45;b</title>
<path fill="none" stroke="#000000" stroke-width="4" d="M294.7792,-258.6423C341.1194,-258.6423 434.9745,-258.6423 481.2468,-258.6423"/>
<text text-anchor="middle" x="370.513" y="-261.4423" font-family="Times,serif" font-size="14.00" fill="#000000">22, 23</text>
<polyline fill="none" stroke="#000000" points="388.013,-258.6423 353.013,-258.6423 370.437,-258.6423 "/>
</g>
<!-- c -->
<g id="node3" class="node">
<title>c</title>
<ellipse fill="none" stroke="#000000" cx="476.0446" cy="-378.9634" rx="27" ry="18"/>
<text text-anchor="middle" x="476.0446" y="-374.7634" font-family="Times,serif" font-size="14.00" fill="#000000">c</text>
</g>
<!-- a&#45;&#45;c -->
<g id="1" class="edge">
<title>a&#45;&#45;c</title>
<path fill="none" stroke="#000000" stroke-width="4" d="M288.3866,-270.619C328.3331,-293.6821 415.5039,-344.0102 455.3842,-367.0351"/>
<text text-anchor="middle" x="354.3854" y="-321.6271" font-family="Times,serif" font-size="14.00" fill="#000000">20, 21</text>
<polyline fill="none" stroke="#000000" points="371.8854,-318.8271 336.8854,-318.8271 361.8712,-313.0454 "/>
</g>
<!-- d -->
<g id="node4" class="node">
<title>d</title>
<ellipse fill="none" stroke="#000000" cx="387.9634" cy="-467.0446" rx="27" ry="18"/>
<text text-anchor="middle" x="387.9634" y="-462.8446" font-family="Times,serif" font-size="14.00" fill="#000000">d</text>
</g>
<!-- a&#45;&#45;d -->
<g id="2" class="edge">
<title>a&#45;&#45;d</title>
<path fill="none" stroke="#000000" stroke-width="4" d="M277.4887,-275.6967C300.1072,-314.8732 355.5629,-410.9252 378.1497,-450.0468"/>
<text text-anchor="middle" x="310.3192" y="-365.6717" font-family="Times,serif" font-size="14.00" fill="#000000">18, 19</text>
<polyline fill="none" stroke="#000000" points="327.8192,-362.8717 292.8192,-362.8717 326.459,-360.5159 "/>
</g>
<!-- e -->
<g id="node5" class="node">
<title>e</title>
<ellipse fill="none" stroke="#000000" cx="267.6423" cy="-499.2845" rx="27" ry="18"/>
<text text-anchor="middle" x="267.6423" y="-495.0845" font-family="Times,serif" font-size="14.00" fill="#000000">e</text>
</g>
<!-- a&#45;&#45;e -->
<g id="3" class="edge">
<title>a&#45;&#45;e</title>
<path fill="none" stroke="#000000" stroke-width="4" d="M267.6423,-276.7296C267.6423,-321.326 267.6423,-436.1714 267.6423,-480.9874"/>
<text text-anchor="middle" x="250.1423" y="-381.6585" font-family="Times,serif" font-size="14.00" fill="#000000">14, 15</text>
<polyline fill="none" stroke="#000000" points="267.6423,-378.8585 232.6423,-378.8585 267.6423,-385.7844 "/>
</g>
<!-- f -->
<g id="node6" class="node">
<title>f</title>
<ellipse fill="none" stroke="#000000" cx="147.3211" cy="-467.0446" rx="27" ry="18"/>
<text text-anchor="middle" x="147.3211" y="-462.8446" font-family="Times,serif" font-size="14.00" fill="#000000">f</text>
</g>
<!-- a&#45;&#45;f -->
<g id="4" class="edge">
<title>a&#45;&#45;f</title>
<path fill="none" stroke="#000000" stroke-width="4" d="M257.7959,-275.6967C235.1774,-314.8732 179.7217,-410.9252 157.1348,-450.0468"/>
<text text-anchor="middle" x="190.2217" y="-365.6717" font-family="Times,serif" font-size="14.00" fill="#000000">10, 11</text>
<polyline fill="none" stroke="#000000" points="207.4654,-362.8717 172.9781,-362.8717 199.9246,-375.9327 "/>
</g>
<!-- g -->
<g id="node7" class="node">
<title>g</title>
<ellipse fill="none" stroke="#000000" cx="59.24" cy="-378.9634" rx="27" ry="18"/>
<text text-anchor="middle" x="59.24" y="-374.7634" font-family="Times,serif" font-size="14.00" fill="#000000">g</text>
</g>
<!-- a&#45;&#45;g -->
<g id="5" class="edge">
<title>a&#45;&#45;g</title>
<path fill="none" stroke="#000000" stroke-width="4" d="M246.898,-270.619C206.9514,-293.6821 119.7807,-344.0102 79.9004,-367.0351"/>
<text text-anchor="middle" x="152.8992" y="-321.6271" font-family="Times,serif" font-size="14.00" fill="#000000">6, 7</text>
<polyline fill="none" stroke="#000000" points="163.3992,-318.8271 142.3992,-318.8271 152.5946,-325.0651 "/>
</g>
<!-- h -->
<g id="node8" class="node">
<title>h</title>
<ellipse fill="none" stroke="#000000" cx="27" cy="-258.6423" rx="27" ry="18"/>
<text text-anchor="middle" x="27" y="-254.4423" font-family="Times,serif" font-size="14.00" fill="#000000">h</text>
</g>
<!-- a&#45;&#45;h -->
<g id="6" class="edge">
<title>a&#45;&#45;h</title>
<path fill="none" stroke="#000000" stroke-width="4" d="M240.5053,-258.6423C194.1652,-258.6423 100.31,-258.6423 54.0378,-258.6423"/>
<text text-anchor="middle" x="136.7716" y="-261.4423" font-family="Times,serif" font-size="14.00" fill="#000000">2, 3</text>
<polyline fill="none" stroke="#000000" points="147.2716,-258.6423 126.2716,-258.6423 136.5825,-258.6423 "/>
</g>
<!-- i -->
<g id="node9" class="node">
<title>i</title>
<ellipse fill="none" stroke="#000000" cx="59.24" cy="-138.3211" rx="27" ry="18"/>
<text text-anchor="middle" x="59.24" y="-134.1211" font-family="Times,serif" font-size="14.00" fill="#000000">i</text>
</g>
<!-- a&#45;&#45;i -->
<g id="7" class="edge">
<title>a&#45;&#45;i</title>
<path fill="none" stroke="#000000" stroke-width="4" d="M246.898,-246.6655C206.9514,-223.6024 119.7807,-173.2743 79.9004,-150.2494"/>
<text text-anchor="middle" x="152.8992" y="-201.2575" font-family="Times,serif" font-size="14.00" fill="#000000">0, 1</text>
<polyline fill="none" stroke="#000000" points="163.3992,-198.4575 142.3992,-198.4575 158.5358,-195.6496 "/>
</g>
<!-- j -->
<g id="node10" class="node">
<title>j</title>
<ellipse fill="none" stroke="#000000" cx="147.3211" cy="-50.24" rx="27" ry="18"/>
<text text-anchor="middle" x="147.3211" y="-46.04" font-family="Times,serif" font-size="14.00" fill="#000000">j</text>
</g>
<!-- a&#45;&#45;j -->
<g id="8" class="edge">
<title>a&#45;&#45;j</title>
<path fill="none" stroke="#000000" stroke-width="4" d="M257.7959,-241.5878C235.1774,-202.4114 179.7217,-106.3593 157.1348,-67.2378"/>
<text text-anchor="middle" x="196.9654" y="-157.2128" font-family="Times,serif" font-size="14.00" fill="#000000">4, 5</text>
<polyline fill="none" stroke="#000000" points="207.4654,-154.4128 186.4654,-154.4128 207.9108,-155.1844 "/>
</g>
<!-- k -->
<g id="node11" class="node">
<title>k</title>
<ellipse fill="none" stroke="#000000" cx="267.6423" cy="-18" rx="27" ry="18"/>
<text text-anchor="middle" x="267.6423" y="-13.8" font-family="Times,serif" font-size="14.00" fill="#000000">k</text>
</g>
<!-- a&#45;&#45;k -->
<g id="9" class="edge">
<title>a&#45;&#45;k</title>
<path fill="none" stroke="#000000" stroke-width="4" d="M267.6423,-240.555C267.6423,-195.9586 267.6423,-81.1131 267.6423,-36.2972"/>
<text text-anchor="middle" x="257.1423" y="-141.2261" font-family="Times,serif" font-size="14.00" fill="#000000">8, 9</text>
<polyline fill="none" stroke="#000000" points="267.6423,-138.4261 246.6423,-138.4261 267.6423,-145.5161 "/>
</g>
<!-- l -->
<g id="node12" class="node">
<title>l</title>
<ellipse fill="none" stroke="#000000" cx="387.9634" cy="-50.24" rx="27" ry="18"/>
<text text-anchor="middle" x="387.9634" y="-46.04" font-family="Times,serif" font-size="14.00" fill="#000000">l</text>
</g>
<!-- a&#45;&#45;l -->
<g id="10" class="edge">
<title>a&#45;&#45;l</title>
<path fill="none" stroke="#000000" stroke-width="4" d="M277.4887,-241.5878C300.1072,-202.4114 355.5629,-106.3593 378.1497,-67.2378"/>
<text text-anchor="middle" x="310.3192" y="-157.2128" font-family="Times,serif" font-size="14.00" fill="#000000">12, 13</text>
<polyline fill="none" stroke="#000000" points="327.8192,-154.4128 292.8192,-154.4128 320.3018,-167.4333 "/>
</g>
<!-- m -->
<g id="node13" class="node">
<title>m</title>
<ellipse fill="none" stroke="#000000" cx="476.0446" cy="-138.3211" rx="27" ry="18"/>
<text text-anchor="middle" x="476.0446" y="-134.1211" font-family="Times,serif" font-size="14.00" fill="#000000">m</text>
</g>
<!-- a&#45;&#45;m -->
<g id="11" class="edge">
<title>a&#45;&#45;m</title>
<path fill="none" stroke="#000000" stroke-width="4" d="M288.3866,-246.6655C328.3331,-223.6024 415.5039,-173.2743 455.3842,-150.2494"/>
<text text-anchor="middle" x="354.3854" y="-201.2575" font-family="Times,serif" font-size="14.00" fill="#000000">16, 17</text>
<polyline fill="none" stroke="#000000" points="371.8854,-198.4575 336.8854,-198.4575 355.9559,-207.6544 "/>
</g>
</g>
</svg>
