<?xml version="1.0" encoding="UTF-8" standalone="no"?>
<!DOCTYPE svg PUBLIC "-//W3C//DTD SVG 1.1//EN"
 "http://www.w3.org/Graphics/SVG/1.1/DTD/svg11.dtd">
<!-- Generated by graphviz version 2.38.0 (20140413.2041)
 -->
<!-- Title: %3 Pages: 1 -->
<svg width="576pt" height="584pt"
 viewBox="0.00 0.00 575.82 583.59" xmlns="http://www.w3.org/2000/svg" xmlns:xlink="http://www.w3.org/1999/xlink">
<g id="graph0" class="graph" transform="scale(1 1) rotate(0) translate(4 579.59)">
<title>%3</title>
<polygon fill="white" stroke="none" points="-4,4 -4,-579.59 571.816,-579.59 571.816,4 -4,4"/>
<text text-anchor="middle" x="283.908" y="-560.39" font-family="Times,serif" font-size="14.00">Base Graph: Chinese Postman Solution (required &amp; optional edges)</text>
<!-- i -->
<g id="node1" class="node"><title>i</title>
<ellipse fill="none" stroke="black" cx="510.955" cy="-397.946" rx="27" ry="18"/>
<text text-anchor="middle" x="510.955" y="-393.746" font-family="Times,serif" font-size="14.00">i</text>
</g>
<!-- h -->
<g id="node3" class="node"><title>h</title>
<ellipse fill="none" stroke="black" cx="311.544" cy="-535.59" rx="27" ry="18"/>
<text text-anchor="middle" x="311.544" y="-531.39" font-family="Times,serif" font-size="14.00">h</text>
</g>
<!-- i&#45;&#45;h -->
<g id="0" class="edge"><title>i&#45;&#45;h</title>
<path fill="none" stroke="black" stroke-dasharray="5,2" d="M492.195,-410.896C454.189,-437.129 368.485,-496.286 330.399,-522.575"/>
<text text-anchor="middle" x="404.297" y="-455.535" font-family="Times,serif" font-size="14.00">28</text>
<polyline fill="none" stroke="black" points="411.297,-452.735 397.297,-452.735 409.877,-467.716 "/>
</g>
<!-- a -->
<g id="node9" class="node"><title>a</title>
<ellipse fill="none" stroke="black" cx="27" cy="-339.184" rx="27" ry="18"/>
<text text-anchor="middle" x="27" y="-334.984" font-family="Times,serif" font-size="14.00">a</text>
</g>
<!-- i&#45;&#45;a -->
<g id="2" class="edge"><title>i&#45;&#45;a</title>
<path fill="none" stroke="black" d="M484.246,-394.703C399.634,-384.43 138.124,-352.676 53.6263,-342.417"/>
<text text-anchor="middle" x="261.936" y="-371.36" font-family="Times,serif" font-size="14.00">29</text>
<polyline fill="none" stroke="black" points="268.936,-368.56 254.936,-368.56 262.811,-367.816 "/>
</g>
<!-- j -->
<g id="node10" class="node"><title>j</title>
<ellipse fill="none" stroke="black" cx="540.816" cy="-276.795" rx="27" ry="18"/>
<text text-anchor="middle" x="540.816" y="-272.595" font-family="Times,serif" font-size="14.00">j</text>
</g>
<!-- i&#45;&#45;j -->
<g id="1" class="edge"><title>i&#45;&#45;j</title>
<path fill="none" stroke="black" stroke-width="4" stroke-dasharray="5,2" d="M515.361,-380.07C521.007,-357.164 530.738,-317.686 536.392,-294.745"/>
<text text-anchor="middle" x="508.377" y="-340.207" font-family="Times,serif" font-size="14.00">21, 22</text>
<polyline fill="none" stroke="black" points="525.877,-337.407 490.877,-337.407 523.183,-348.336 "/>
</g>
<!-- k -->
<g id="node2" class="node"><title>k</title>
<ellipse fill="none" stroke="black" cx="428.213" cy="-491.343" rx="27" ry="18"/>
<text text-anchor="middle" x="428.213" y="-487.143" font-family="Times,serif" font-size="14.00">k</text>
</g>
<!-- l -->
<g id="node5" class="node"><title>l</title>
<ellipse fill="none" stroke="black" cx="187.676" cy="-520.55" rx="27" ry="18"/>
<text text-anchor="middle" x="187.676" y="-516.35" font-family="Times,serif" font-size="14.00">l</text>
</g>
<!-- k&#45;&#45;l -->
<g id="11" class="edge"><title>k&#45;&#45;l</title>
<path fill="none" stroke="black" stroke-width="4" stroke-dasharray="5,2" d="M401.552,-494.581C355.316,-500.195 260.775,-511.674 214.456,-517.298"/>
<text text-anchor="middle" x="290.504" y="-494.739" font-family="Times,serif" font-size="14.00">13, 14</text>
<polyline fill="none" stroke="black" points="308.004,-491.939 273.004,-491.939 291.578,-507.934 "/>
</g>
<!-- k&#45;&#45;a -->
<g id="20" class="edge"><title>k&#45;&#45;a</title>
<path fill="none" stroke="black" d="M404.613,-482.393C333.476,-455.415 121.668,-375.086 50.5701,-348.123"/>
<text text-anchor="middle" x="220.591" y="-418.058" font-family="Times,serif" font-size="14.00">24</text>
<polyline fill="none" stroke="black" points="227.591,-415.258 213.591,-415.258 223.847,-413.838 "/>
</g>
<!-- k&#45;&#45;j -->
<g id="23" class="edge"><title>k&#45;&#45;j</title>
<path fill="none" stroke="black" stroke-dasharray="5,2" d="M437.237,-474.149C458.321,-433.976 510.622,-334.325 531.749,-294.072"/>
<text text-anchor="middle" x="477.493" y="-372.91" font-family="Times,serif" font-size="14.00">23</text>
<polyline fill="none" stroke="black" points="484.493,-370.11 470.493,-370.11 485.767,-381.682 "/>
</g>
<!-- h&#45;&#45;a -->
<g id="7" class="edge"><title>h&#45;&#45;a</title>
<path fill="none" stroke="black" d="M292.432,-522.398C240.596,-486.618 97.767,-388.031 46.0284,-352.318"/>
<text text-anchor="middle" x="162.23" y="-440.158" font-family="Times,serif" font-size="14.00">25</text>
<polyline fill="none" stroke="black" points="169.23,-437.358 155.23,-437.358 167.483,-436.152 "/>
</g>
<!-- g -->
<g id="node12" class="node"><title>g</title>
<ellipse fill="none" stroke="black" cx="510.955" cy="-155.644" rx="27" ry="18"/>
<text text-anchor="middle" x="510.955" y="-151.444" font-family="Times,serif" font-size="14.00">g</text>
</g>
<!-- h&#45;&#45;g -->
<g id="6" class="edge"><title>h&#45;&#45;g</title>
<path fill="none" stroke="black" stroke-width="4" stroke-dasharray="5,2" d="M320.63,-518.277C353.85,-454.982 468.508,-236.52 501.815,-173.058"/>
<text text-anchor="middle" x="393.723" y="-348.468" font-family="Times,serif" font-size="14.00">26, 27</text>
<polyline fill="none" stroke="black" points="411.223,-345.668 376.223,-345.668 404.478,-358.52 "/>
</g>
<!-- e -->
<g id="node4" class="node"><title>e</title>
<ellipse fill="none" stroke="black" cx="311.544" cy="-18" rx="27" ry="18"/>
<text text-anchor="middle" x="311.544" y="-13.8" font-family="Times,serif" font-size="14.00">e</text>
</g>
<!-- f -->
<g id="node7" class="node"><title>f</title>
<ellipse fill="none" stroke="black" cx="428.213" cy="-62.2466" rx="27" ry="18"/>
<text text-anchor="middle" x="428.213" y="-58.0466" font-family="Times,serif" font-size="14.00">f</text>
</g>
<!-- e&#45;&#45;f -->
<g id="15" class="edge"><title>e&#45;&#45;f</title>
<path fill="none" stroke="black" stroke-width="4" stroke-dasharray="5,2" d="M335.154,-26.954C355.395,-34.6305 384.407,-45.6332 404.638,-53.306"/>
<text text-anchor="middle" x="355.896" y="-42.93" font-family="Times,serif" font-size="14.00">7, 18</text>
<polyline fill="none" stroke="black" points="369.896,-40.13 341.896,-40.13 360.129,-36.426 "/>
</g>
<!-- d -->
<g id="node8" class="node"><title>d</title>
<ellipse fill="none" stroke="black" cx="187.676" cy="-33.0402" rx="27" ry="18"/>
<text text-anchor="middle" x="187.676" y="-28.8402" font-family="Times,serif" font-size="14.00">d</text>
</g>
<!-- e&#45;&#45;d -->
<g id="17" class="edge"><title>e&#45;&#45;d</title>
<path fill="none" stroke="black" stroke-dasharray="5,2" d="M284.971,-21.2265C264.214,-23.7469 235.487,-27.235 214.633,-29.7672"/>
<text text-anchor="middle" x="246.302" y="-28.2968" font-family="Times,serif" font-size="14.00">8</text>
<polyline fill="none" stroke="black" points="249.802,-25.4968 242.802,-25.4968 245.777,-25.9855 "/>
</g>
<!-- e&#45;&#45;a -->
<g id="22" class="edge"><title>e&#45;&#45;a</title>
<path fill="none" stroke="black" d="M297.433,-33.9275C248.877,-88.7361 89.0316,-269.164 40.8602,-323.539"/>
<text text-anchor="middle" x="162.147" y="-181.533" font-family="Times,serif" font-size="14.00">19</text>
<polyline fill="none" stroke="black" points="169.147,-178.733 155.147,-178.733 162.6,-186.123 "/>
</g>
<!-- l&#45;&#45;a -->
<g id="12" class="edge"><title>l&#45;&#45;a</title>
<path fill="none" stroke="black" d="M173.699,-504.772C143.235,-470.385 71.161,-389.031 40.8312,-354.796"/>
<text text-anchor="middle" x="100.265" y="-418.584" font-family="Times,serif" font-size="14.00">15</text>
<polyline fill="none" stroke="black" points="107.265,-415.784 93.2649,-415.784 100.617,-422.28 "/>
</g>
<!-- m -->
<g id="node13" class="node"><title>m</title>
<ellipse fill="none" stroke="black" cx="84.9868" cy="-449.668" rx="27" ry="18"/>
<text text-anchor="middle" x="84.9868" y="-445.468" font-family="Times,serif" font-size="14.00">m</text>
</g>
<!-- l&#45;&#45;m -->
<g id="8" class="edge"><title>l&#45;&#45;m</title>
<path fill="none" stroke="black" stroke-dasharray="5,2" d="M168.842,-507.549C150.429,-494.84 122.541,-475.59 104.05,-462.827"/>
<text text-anchor="middle" x="129.446" y="-487.988" font-family="Times,serif" font-size="14.00">12</text>
<polyline fill="none" stroke="black" points="136.446,-485.188 122.446,-485.188 134.846,-484.084 "/>
</g>
<!-- b -->
<g id="node6" class="node"><title>b</title>
<ellipse fill="none" stroke="black" cx="27" cy="-214.406" rx="27" ry="18"/>
<text text-anchor="middle" x="27" y="-210.206" font-family="Times,serif" font-size="14.00">b</text>
</g>
<!-- b&#45;&#45;a -->
<g id="13" class="edge"><title>b&#45;&#45;a</title>
<path fill="none" stroke="black" d="M27,-232.55C27,-256.207 27,-297.35 27,-321.018"/>
<text text-anchor="middle" x="23.5" y="-279.584" font-family="Times,serif" font-size="14.00">5</text>
<polyline fill="none" stroke="black" points="27,-276.784 20,-276.784 27,-283.603 "/>
</g>
<!-- c -->
<g id="node11" class="node"><title>c</title>
<ellipse fill="none" stroke="black" cx="84.9868" cy="-103.922" rx="27" ry="18"/>
<text text-anchor="middle" x="84.9868" y="-99.7217" font-family="Times,serif" font-size="14.00">c</text>
</g>
<!-- b&#45;&#45;c -->
<g id="5" class="edge"><title>b&#45;&#45;c</title>
<path fill="none" stroke="black" stroke-dasharray="5,2" d="M36.0604,-197.143C46.9542,-176.387 65.1247,-141.766 75.99,-121.064"/>
<text text-anchor="middle" x="49.0252" y="-161.903" font-family="Times,serif" font-size="14.00">10</text>
<polyline fill="none" stroke="black" points="56.0252,-159.103 42.0252,-159.103 51.6251,-167.487 "/>
</g>
<!-- b&#45;&#45;m -->
<g id="10" class="edge"><title>b&#45;&#45;m</title>
<path fill="none" stroke="black" stroke-width="4" stroke-dasharray="5,2" d="M31.4538,-232.476C42.2741,-276.376 69.8435,-388.23 80.5972,-431.859"/>
<text text-anchor="middle" x="69.7692" y="-334.968" font-family="Times,serif" font-size="14.00">4, 11</text>
<polyline fill="none" stroke="black" points="83.5128,-332.168 56.0255,-332.168 58.4078,-341.833 "/>
</g>
<!-- f&#45;&#45;a -->
<g id="16" class="edge"><title>f&#45;&#45;a</title>
<path fill="none" stroke="black" d="M409.399,-75.2324C342.007,-121.75 113.099,-279.753 45.7725,-326.226"/>
<text text-anchor="middle" x="224.086" y="-203.529" font-family="Times,serif" font-size="14.00">6</text>
<polyline fill="none" stroke="black" points="227.586,-200.729 220.586,-200.729 221.92,-204.64 "/>
</g>
<!-- f&#45;&#45;g -->
<g id="14" class="edge"><title>f&#45;&#45;g</title>
<path fill="none" stroke="black" stroke-dasharray="5,2" d="M442.249,-78.0901C457.556,-95.3688 481.901,-122.848 497.126,-140.034"/>
<text text-anchor="middle" x="462.687" y="-111.862" font-family="Times,serif" font-size="14.00">17</text>
<polyline fill="none" stroke="black" points="469.687,-109.062 455.687,-109.062 470.182,-109.621 "/>
</g>
<!-- d&#45;&#45;a -->
<g id="18" class="edge"><title>d&#45;&#45;a</title>
<path fill="none" stroke="black" d="M178.577,-50.377C150.297,-104.262 64.1434,-268.413 35.9992,-322.037"/>
<text text-anchor="middle" x="103.788" y="-189.007" font-family="Times,serif" font-size="14.00">2</text>
<polyline fill="none" stroke="black" points="107.288,-186.207 100.288,-186.207 103.553,-193.325 "/>
</g>
<!-- d&#45;&#45;c -->
<g id="3" class="edge"><title>d&#45;&#45;c</title>
<path fill="none" stroke="black" stroke-width="4" stroke-dasharray="5,2" d="M168.842,-46.041C150.429,-58.7504 122.541,-78.0002 104.05,-90.7634"/>
<text text-anchor="middle" x="125.946" y="-71.2022" font-family="Times,serif" font-size="14.00">1, 9</text>
<polyline fill="none" stroke="black" points="136.446,-68.4022 115.446,-68.4022 126.216,-75.4631 "/>
</g>
<!-- a&#45;&#45;j -->
<g id="19" class="edge"><title>a&#45;&#45;j</title>
<path fill="none" stroke="black" d="M53.9016,-335.917C142.691,-325.136 425.781,-290.763 514.181,-280.029"/>
<text text-anchor="middle" x="277.041" y="-310.773" font-family="Times,serif" font-size="14.00">20</text>
<polyline fill="none" stroke="black" points="284.041,-307.973 270.041,-307.973 276.022,-308.947 "/>
</g>
<!-- a&#45;&#45;c -->
<g id="4" class="edge"><title>a&#45;&#45;c</title>
<path fill="none" stroke="black" d="M31.4538,-321.114C42.2741,-277.214 69.8435,-165.361 80.5972,-121.731"/>
<text text-anchor="middle" x="59.5255" y="-224.222" font-family="Times,serif" font-size="14.00">0</text>
<polyline fill="none" stroke="black" points="63.0255,-221.422 56.0255,-221.422 54.5901,-227.246 "/>
</g>
<!-- a&#45;&#45;g -->
<g id="21" class="edge"><title>a&#45;&#45;g</title>
<path fill="none" stroke="black" d="M50.6698,-330.207C132.841,-299.043 405.23,-195.74 487.331,-164.603"/>
<text text-anchor="middle" x="262" y="-250.205" font-family="Times,serif" font-size="14.00">16</text>
<polyline fill="none" stroke="black" points="269,-247.405 255,-247.405 260.2,-250.743 "/>
</g>
<!-- a&#45;&#45;m -->
<g id="9" class="edge"><title>a&#45;&#45;m</title>
<path fill="none" stroke="black" d="M36.0604,-356.447C46.9542,-377.203 65.1247,-411.824 75.99,-432.526"/>
<text text-anchor="middle" x="52.5252" y="-397.287" font-family="Times,serif" font-size="14.00">3</text>
<polyline fill="none" stroke="black" points="56.0252,-394.487 49.0252,-394.487 58.0769,-398.396 "/>
</g>
</g>
</svg>
