<?xml version="1.0" encoding="UTF-8" standalone="no"?>
<!DOCTYPE svg PUBLIC "-//W3C//DTD SVG 1.1//EN"
 "http://www.w3.org/Graphics/SVG/1.1/DTD/svg11.dtd">
<!-- Generated by graphviz version 2.40.1 (20161225.0304)
 -->
<!-- Title: %3 Pages: 1 -->
<svg width="576pt" height="584pt"
 viewBox="0.00 0.00 575.82 583.59" xmlns="http://www.w3.org/2000/svg" xmlns:xlink="http://www.w3.org/1999/xlink">
<g id="graph0" class="graph" transform="scale(1 1) rotate(0) translate(4 579.5901)">
<title>%3</title>
<polygon fill="#ffffff" stroke="transparent" points="-4,4 -4,-579.5901 571.8162,-579.5901 571.8162,4 -4,4"/>
<text text-anchor="middle" x="283.9081" y="-560.3901" font-family="Times,serif" font-size="14.00" fill="#000000">Base Graph: Chinese Postman Solution (required &amp; optional edges)</text>
<!-- a -->
<g id="node1" class="node">
<title>a</title>
<ellipse fill="none" stroke="#000000" cx="27" cy="-339.1836" rx="27" ry="18"/>
<text text-anchor="middle" x="27" y="-334.9836" font-family="Times,serif" font-size="14.00" fill="#000000">a</text>
</g>
<!-- b -->
<g id="node2" class="node">
<title>b</title>
<ellipse fill="none" stroke="#000000" cx="428.2125" cy="-62.2466" rx="27" ry="18"/>
<text text-anchor="middle" x="428.2125" y="-58.0466" font-family="Times,serif" font-size="14.00" fill="#000000">b</text>
</g>
<!-- a&#45;&#45;b -->
<g id="0" class="edge">
<title>a&#45;&#45;b</title>
<path fill="none" stroke="#000000" d="M45.8132,-326.1978C113.2052,-279.6804 342.1131,-121.6767 409.4401,-75.2043"/>
<text text-anchor="middle" x="220.6266" y="-203.5011" font-family="Times,serif" font-size="14.00" fill="#000000">29</text>
<polyline fill="none" stroke="#000000" points="227.6266,-200.7011 213.6266,-200.7011 219.4073,-206.3744 "/>
</g>
<!-- c -->
<g id="node3" class="node">
<title>c</title>
<ellipse fill="none" stroke="#000000" cx="311.5439" cy="-18" rx="27" ry="18"/>
<text text-anchor="middle" x="311.5439" y="-13.8" font-family="Times,serif" font-size="14.00" fill="#000000">c</text>
</g>
<!-- a&#45;&#45;c -->
<g id="1" class="edge">
<title>a&#45;&#45;c</title>
<path fill="none" stroke="#000000" d="M41.1106,-323.2561C89.6667,-268.4476 249.5123,-88.0192 297.6837,-33.6449"/>
<text text-anchor="middle" x="162.3971" y="-181.2505" font-family="Times,serif" font-size="14.00" fill="#000000">27</text>
<polyline fill="none" stroke="#000000" points="169.3971,-178.4505 155.3971,-178.4505 162.8335,-185.8593 "/>
</g>
<!-- d -->
<g id="node4" class="node">
<title>d</title>
<ellipse fill="none" stroke="#000000" cx="187.6764" cy="-33.0402" rx="27" ry="18"/>
<text text-anchor="middle" x="187.6764" y="-28.8402" font-family="Times,serif" font-size="14.00" fill="#000000">d</text>
</g>
<!-- a&#45;&#45;d -->
<g id="2" class="edge">
<title>a&#45;&#45;d</title>
<path fill="none" stroke="#000000" d="M36.099,-321.8469C64.3798,-267.9623 150.533,-103.8111 178.6772,-50.1868"/>
<text text-anchor="middle" x="100.3881" y="-188.8169" font-family="Times,serif" font-size="14.00" fill="#000000">26</text>
<polyline fill="none" stroke="#000000" points="107.3881,-186.0169 93.3881,-186.0169 103.0854,-194.215 "/>
</g>
<!-- e -->
<g id="node5" class="node">
<title>e</title>
<ellipse fill="none" stroke="#000000" cx="84.9868" cy="-103.9217" rx="27" ry="18"/>
<text text-anchor="middle" x="84.9868" y="-99.7217" font-family="Times,serif" font-size="14.00" fill="#000000">e</text>
</g>
<!-- a&#45;&#45;e -->
<g id="3" class="edge">
<title>a&#45;&#45;e</title>
<path fill="none" stroke="#000000" d="M31.4538,-321.1137C42.2741,-277.2142 69.8435,-165.3605 80.5972,-121.7312"/>
<text text-anchor="middle" x="63.0255" y="-224.2224" font-family="Times,serif" font-size="14.00" fill="#000000">21</text>
<polyline fill="none" stroke="#000000" points="70.0255,-221.4224 56.0255,-221.4224 54.8147,-226.335 "/>
</g>
<!-- f -->
<g id="node6" class="node">
<title>f</title>
<ellipse fill="none" stroke="#000000" cx="27" cy="-214.4064" rx="27" ry="18"/>
<text text-anchor="middle" x="27" y="-210.2064" font-family="Times,serif" font-size="14.00" fill="#000000">f</text>
</g>
<!-- a&#45;&#45;f -->
<g id="4" class="edge">
<title>a&#45;&#45;f</title>
<path fill="none" stroke="#000000" d="M27,-321.0399C27,-297.3831 27,-256.2397 27,-232.572"/>
<text text-anchor="middle" x="20" y="-279.606" font-family="Times,serif" font-size="14.00" fill="#000000">17</text>
<polyline fill="none" stroke="#000000" points="27,-276.806 13,-276.806 27,-283.6328 "/>
</g>
<!-- g -->
<g id="node7" class="node">
<title>g</title>
<ellipse fill="none" stroke="#000000" cx="84.9868" cy="-449.6683" rx="27" ry="18"/>
<text text-anchor="middle" x="84.9868" y="-445.4683" font-family="Times,serif" font-size="14.00" fill="#000000">g</text>
</g>
<!-- a&#45;&#45;g -->
<g id="5" class="edge">
<title>a&#45;&#45;g</title>
<path fill="none" stroke="#000000" d="M36.0604,-356.4469C46.9542,-377.2032 65.1247,-411.8241 75.99,-432.5263"/>
<text text-anchor="middle" x="49.0252" y="-397.2866" font-family="Times,serif" font-size="14.00" fill="#000000">16</text>
<polyline fill="none" stroke="#000000" points="56.0252,-394.4866 42.0252,-394.4866 57.3971,-397.1005 "/>
</g>
<!-- h -->
<g id="node8" class="node">
<title>h</title>
<ellipse fill="none" stroke="#000000" cx="187.6764" cy="-520.5498" rx="27" ry="18"/>
<text text-anchor="middle" x="187.6764" y="-516.3498" font-family="Times,serif" font-size="14.00" fill="#000000">h</text>
</g>
<!-- a&#45;&#45;h -->
<g id="6" class="edge">
<title>a&#45;&#45;h</title>
<path fill="none" stroke="#000000" d="M40.9779,-354.9614C71.4419,-389.3481 143.5154,-470.7024 173.8453,-504.9377"/>
<text text-anchor="middle" x="100.4116" y="-418.7495" font-family="Times,serif" font-size="14.00" fill="#000000">12</text>
<polyline fill="none" stroke="#000000" points="107.4116,-415.9495 93.4116,-415.9495 100.8636,-422.5584 "/>
</g>
<!-- i -->
<g id="node9" class="node">
<title>i</title>
<ellipse fill="none" stroke="#000000" cx="311.5439" cy="-535.5901" rx="27" ry="18"/>
<text text-anchor="middle" x="311.5439" y="-531.3901" font-family="Times,serif" font-size="14.00" fill="#000000">i</text>
</g>
<!-- a&#45;&#45;i -->
<g id="7" class="edge">
<title>a&#45;&#45;i</title>
<path fill="none" stroke="#000000" d="M46.1116,-352.3754C97.9477,-388.1552 240.7769,-486.7431 292.5155,-522.4557"/>
<text text-anchor="middle" x="162.5699" y="-440.2155" font-family="Times,serif" font-size="14.00" fill="#000000">11</text>
<polyline fill="none" stroke="#000000" points="169.3135,-437.4155 155.8262,-437.4155 167.9247,-436.4569 "/>
</g>
<!-- j -->
<g id="node10" class="node">
<title>j</title>
<ellipse fill="none" stroke="#000000" cx="428.2125" cy="-491.3435" rx="27" ry="18"/>
<text text-anchor="middle" x="428.2125" y="-487.1435" font-family="Times,serif" font-size="14.00" fill="#000000">j</text>
</g>
<!-- a&#45;&#45;j -->
<g id="8" class="edge">
<title>a&#45;&#45;j</title>
<path fill="none" stroke="#000000" d="M50.5998,-348.1338C121.7365,-375.1124 333.545,-455.4408 404.6425,-482.4045"/>
<text text-anchor="middle" x="224.1211" y="-418.0692" font-family="Times,serif" font-size="14.00" fill="#000000">7</text>
<polyline fill="none" stroke="#000000" points="227.6211,-415.2692 220.6211,-415.2692 226.8069,-414.9604 "/>
</g>
<!-- k -->
<g id="node11" class="node">
<title>k</title>
<ellipse fill="none" stroke="#000000" cx="510.9551" cy="-397.9464" rx="27" ry="18"/>
<text text-anchor="middle" x="510.9551" y="-393.7464" font-family="Times,serif" font-size="14.00" fill="#000000">k</text>
</g>
<!-- a&#45;&#45;k -->
<g id="9" class="edge">
<title>a&#45;&#45;k</title>
<path fill="none" stroke="#000000" d="M53.7089,-342.4267C138.3215,-352.7005 399.8314,-384.4535 484.3288,-394.7134"/>
<text text-anchor="middle" x="265.5188" y="-371.37" font-family="Times,serif" font-size="14.00" fill="#000000">6</text>
<polyline fill="none" stroke="#000000" points="269.0188,-368.57 262.0188,-368.57 266.5274,-368.2675 "/>
</g>
<!-- l -->
<g id="node12" class="node">
<title>l</title>
<ellipse fill="none" stroke="#000000" cx="540.8162" cy="-276.795" rx="27" ry="18"/>
<text text-anchor="middle" x="540.8162" y="-272.595" font-family="Times,serif" font-size="14.00" fill="#000000">l</text>
</g>
<!-- a&#45;&#45;l -->
<g id="10" class="edge">
<title>a&#45;&#45;l</title>
<path fill="none" stroke="#000000" d="M53.9016,-335.9172C142.6911,-325.1362 425.7812,-290.7628 514.181,-280.0291"/>
<text text-anchor="middle" x="280.5413" y="-310.7732" font-family="Times,serif" font-size="14.00" fill="#000000">0</text>
<polyline fill="none" stroke="#000000" points="284.0413,-307.9732 277.0413,-307.9732 279.5597,-308.5173 "/>
</g>
<!-- m -->
<g id="node13" class="node">
<title>m</title>
<ellipse fill="none" stroke="#000000" cx="510.9551" cy="-155.6437" rx="27" ry="18"/>
<text text-anchor="middle" x="510.9551" y="-151.4437" font-family="Times,serif" font-size="14.00" fill="#000000">m</text>
</g>
<!-- a&#45;&#45;m -->
<g id="11" class="edge">
<title>a&#45;&#45;m</title>
<path fill="none" stroke="#000000" d="M50.6698,-330.2069C132.8412,-299.0433 405.2298,-195.74 487.3309,-164.6031"/>
<text text-anchor="middle" x="262.0003" y="-250.205" font-family="Times,serif" font-size="14.00" fill="#000000">22</text>
<polyline fill="none" stroke="#000000" points="269.0003,-247.405 255.0003,-247.405 260.1999,-250.7426 "/>
</g>
<!-- b&#45;&#45;c -->
<g id="12" class="edge">
<title>b&#45;&#45;c</title>
<path fill="none" stroke="#000000" stroke-width="4" stroke-dasharray="5,2" d="M404.6029,-53.2926C384.3614,-45.6161 355.3497,-34.6134 335.1184,-26.9406"/>
<text text-anchor="middle" x="352.3606" y="-42.9166" font-family="Times,serif" font-size="14.00" fill="#000000">24, 28</text>
<polyline fill="none" stroke="#000000" points="369.8606,-40.1166 334.8606,-40.1166 356.6853,-35.1199 "/>
</g>
<!-- b&#45;&#45;m -->
<g id="13" class="edge">
<title>b&#45;&#45;m</title>
<path fill="none" stroke="#000000" stroke-dasharray="5,2" d="M442.2487,-78.0901C457.5562,-95.3688 481.9009,-122.8482 497.1263,-140.0341"/>
<text text-anchor="middle" x="462.6875" y="-111.8621" font-family="Times,serif" font-size="14.00" fill="#000000">23</text>
<polyline fill="none" stroke="#000000" points="469.6875,-109.0621 455.6875,-109.0621 470.1825,-109.6208 "/>
</g>
<!-- c&#45;&#45;d -->
<g id="14" class="edge">
<title>c&#45;&#45;d</title>
<path fill="none" stroke="#000000" stroke-dasharray="5,2" d="M284.9712,-21.2265C264.2139,-23.7469 235.4872,-27.235 214.6326,-29.7672"/>
<text text-anchor="middle" x="242.8019" y="-28.2968" font-family="Times,serif" font-size="14.00" fill="#000000">25</text>
<polyline fill="none" stroke="#000000" points="249.8019,-25.4968 235.8019,-25.4968 242.3075,-26.4068 "/>
</g>
<!-- d&#45;&#45;e -->
<g id="15" class="edge">
<title>d&#45;&#45;e</title>
<path fill="none" stroke="#000000" stroke-width="4" stroke-dasharray="5,2" d="M168.8416,-46.041C150.4289,-58.7504 122.5406,-78.0002 104.0501,-90.7634"/>
<text text-anchor="middle" x="118.9458" y="-71.2022" font-family="Times,serif" font-size="14.00" fill="#000000">19, 20</text>
<polyline fill="none" stroke="#000000" points="136.4458,-68.4022 101.4458,-68.4022 121.2008,-78.9251 "/>
</g>
<!-- e&#45;&#45;f -->
<g id="16" class="edge">
<title>e&#45;&#45;f</title>
<path fill="none" stroke="#000000" stroke-dasharray="5,2" d="M75.9264,-121.185C65.0326,-141.9413 46.8622,-176.5622 35.9968,-197.2644"/>
<text text-anchor="middle" x="48.9616" y="-162.0247" font-family="Times,serif" font-size="14.00" fill="#000000">18</text>
<polyline fill="none" stroke="#000000" points="55.9616,-159.2247 41.9616,-159.2247 51.5411,-167.6473 "/>
</g>
<!-- f&#45;&#45;g -->
<g id="17" class="edge">
<title>f&#45;&#45;g</title>
<path fill="none" stroke="#000000" stroke-width="4" stroke-dasharray="5,2" d="M31.4538,-232.4764C42.2741,-276.3758 69.8435,-388.2295 80.5972,-431.8588"/>
<text text-anchor="middle" x="73.5255" y="-334.9676" font-family="Times,serif" font-size="14.00" fill="#000000">14, 15</text>
<polyline fill="none" stroke="#000000" points="91.0255,-332.1676 56.0255,-332.1676 58.6318,-342.7417 "/>
</g>
<!-- g&#45;&#45;h -->
<g id="18" class="edge">
<title>g&#45;&#45;h</title>
<path fill="none" stroke="#000000" stroke-dasharray="5,2" d="M103.8217,-462.6691C122.2344,-475.3785 150.1227,-494.6283 168.6132,-507.3915"/>
<text text-anchor="middle" x="129.2175" y="-487.8303" font-family="Times,serif" font-size="14.00" fill="#000000">13</text>
<polyline fill="none" stroke="#000000" points="136.2175,-485.0303 122.2175,-485.0303 134.5594,-483.8858 "/>
</g>
<!-- h&#45;&#45;i -->
<g id="19" class="edge">
<title>h&#45;&#45;i</title>
<path fill="none" stroke="#000000" stroke-width="4" stroke-dasharray="5,2" d="M214.2491,-523.7763C235.0064,-526.2967 263.7331,-529.7848 284.5877,-532.317"/>
<text text-anchor="middle" x="235.4184" y="-530.8467" font-family="Times,serif" font-size="14.00" fill="#000000">9, 10</text>
<polyline fill="none" stroke="#000000" points="249.4184,-528.0467 221.4184,-528.0467 236.1279,-526.4329 "/>
</g>
<!-- i&#45;&#45;j -->
<g id="20" class="edge">
<title>i&#45;&#45;j</title>
<path fill="none" stroke="#000000" stroke-dasharray="5,2" d="M335.1535,-526.6361C355.395,-518.9595 384.4067,-507.9568 404.638,-500.2841"/>
<text text-anchor="middle" x="366.3958" y="-516.2601" font-family="Times,serif" font-size="14.00" fill="#000000">8</text>
<polyline fill="none" stroke="#000000" points="369.8958,-513.4601 362.8958,-513.4601 364.7115,-515.4263 "/>
</g>
<!-- j&#45;&#45;k -->
<g id="21" class="edge">
<title>j&#45;&#45;k</title>
<path fill="none" stroke="#000000" stroke-width="4" stroke-dasharray="5,2" d="M442.2487,-475.4999C457.5562,-458.2213 481.9009,-430.7419 497.1263,-413.556"/>
<text text-anchor="middle" x="459.1875" y="-447.3279" font-family="Times,serif" font-size="14.00" fill="#000000">4, 5</text>
<polyline fill="none" stroke="#000000" points="469.6875,-444.5279 448.6875,-444.5279 461.639,-453.6128 "/>
</g>
<!-- k&#45;&#45;l -->
<g id="22" class="edge">
<title>k&#45;&#45;l</title>
<path fill="none" stroke="#000000" stroke-dasharray="5,2" d="M515.3612,-380.0701C521.007,-357.1644 530.7376,-317.6857 536.3921,-294.7447"/>
<text text-anchor="middle" x="522.3766" y="-340.2074" font-family="Times,serif" font-size="14.00" fill="#000000">3</text>
<polyline fill="none" stroke="#000000" points="525.8766,-337.4074 518.8766,-337.4074 524.0749,-344.7173 "/>
</g>
<!-- l&#45;&#45;m -->
<g id="23" class="edge">
<title>l&#45;&#45;m</title>
<path fill="none" stroke="#000000" stroke-width="4" stroke-dasharray="5,2" d="M536.4101,-258.9187C530.7644,-236.0131 521.0337,-196.5343 515.3793,-173.5933"/>
<text text-anchor="middle" x="515.3947" y="-219.056" font-family="Times,serif" font-size="14.00" fill="#000000">1, 2</text>
<polyline fill="none" stroke="#000000" points="525.8947,-216.256 504.8947,-216.256 526.8886,-220.2885 "/>
</g>
</g>
</svg>
