<?xml version="1.0" encoding="UTF-8" standalone="no"?>
<!DOCTYPE svg PUBLIC "-//W3C//DTD SVG 1.1//EN"
 "http://www.w3.org/Graphics/SVG/1.1/DTD/svg11.dtd">
<!-- Generated by graphviz version 2.38.0 (20140413.2041)
 -->
<!-- Title: %3 Pages: 1 -->
<svg width="629pt" height="503pt"
 viewBox="0.00 0.00 629.18 502.69" xmlns="http://www.w3.org/2000/svg" xmlns:xlink="http://www.w3.org/1999/xlink">
<g id="graph0" class="graph" transform="scale(1 1) rotate(0) translate(4 498.687)">
<title>%3</title>
<polygon fill="white" stroke="none" points="-4,4 -4,-498.687 625.178,-498.687 625.178,4 -4,4"/>
<text text-anchor="middle" x="310.589" y="-479.487" font-family="Times,serif" font-size="14.00">Base Graph: Chinese Postman Solution (required edges only)</text>
<!-- d -->
<g id="node1" class="node"><title>d</title>
<ellipse fill="none" stroke="black" cx="27" cy="-236.343" rx="27" ry="18"/>
<text text-anchor="middle" x="27" y="-232.143" font-family="Times,serif" font-size="14.00">d</text>
</g>
<!-- a -->
<g id="node5" class="node"><title>a</title>
<ellipse fill="none" stroke="black" cx="373.589" cy="-236.343" rx="27" ry="18"/>
<text text-anchor="middle" x="373.589" y="-232.143" font-family="Times,serif" font-size="14.00">a</text>
</g>
<!-- d&#45;&#45;a -->
<g id="0" class="edge"><title>d&#45;&#45;a</title>
<path fill="none" stroke="black" stroke-width="4" d="M54.1962,-236.343C118.986,-236.343 281.857,-236.343 346.519,-236.343"/>
<text text-anchor="middle" x="182.858" y="-239.143" font-family="Times,serif" font-size="14.00">22, 23</text>
<polyline fill="none" stroke="black" points="200.358,-236.343 165.358,-236.343 182.762,-236.343 "/>
</g>
<!-- i -->
<g id="node2" class="node"><title>i</title>
<ellipse fill="none" stroke="black" cx="342.196" cy="-454.687" rx="27" ry="18"/>
<text text-anchor="middle" x="342.196" y="-450.487" font-family="Times,serif" font-size="14.00">i</text>
</g>
<!-- i&#45;&#45;a -->
<g id="1" class="edge"><title>i&#45;&#45;a</title>
<path fill="none" stroke="black" stroke-width="4" d="M344.818,-436.447C350.742,-395.244 365.1,-295.385 370.996,-254.378"/>
<text text-anchor="middle" x="347.407" y="-348.212" font-family="Times,serif" font-size="14.00">4, 5</text>
<polyline fill="none" stroke="black" points="357.907,-345.412 336.907,-345.412 356.672,-354.004 "/>
</g>
<!-- c -->
<g id="node3" class="node"><title>c</title>
<ellipse fill="none" stroke="black" cx="229.134" cy="-403.053" rx="27" ry="18"/>
<text text-anchor="middle" x="229.134" y="-398.853" font-family="Times,serif" font-size="14.00">c</text>
</g>
<!-- c&#45;&#45;a -->
<g id="2" class="edge"><title>c&#45;&#45;a</title>
<path fill="none" stroke="black" stroke-width="4" d="M242.724,-387.37C270.256,-355.596 332.34,-283.947 359.93,-252.107"/>
<text text-anchor="middle" x="283.827" y="-322.538" font-family="Times,serif" font-size="14.00">14, 15</text>
<polyline fill="none" stroke="black" points="301.327,-319.738 266.327,-319.738 290.313,-332.449 "/>
</g>
<!-- l -->
<g id="node4" class="node"><title>l</title>
<ellipse fill="none" stroke="black" cx="161.935" cy="-298.491" rx="27" ry="18"/>
<text text-anchor="middle" x="161.935" y="-294.291" font-family="Times,serif" font-size="14.00">l</text>
</g>
<!-- l&#45;&#45;a -->
<g id="3" class="edge"><title>l&#45;&#45;a</title>
<path fill="none" stroke="black" stroke-width="4" d="M187.046,-291.117C227.89,-279.124 308.228,-255.535 348.838,-243.611"/>
<text text-anchor="middle" x="250.699" y="-270.164" font-family="Times,serif" font-size="14.00">10, 11</text>
<polyline fill="none" stroke="black" points="267.942,-267.364 233.455,-267.364 250.366,-272.525 "/>
</g>
<!-- b -->
<g id="node6" class="node"><title>b</title>
<ellipse fill="none" stroke="black" cx="161.935" cy="-174.196" rx="27" ry="18"/>
<text text-anchor="middle" x="161.935" y="-169.996" font-family="Times,serif" font-size="14.00">b</text>
</g>
<!-- a&#45;&#45;b -->
<g id="5" class="edge"><title>a&#45;&#45;b</title>
<path fill="none" stroke="black" stroke-width="4" d="M348.478,-228.97C307.634,-216.977 227.296,-193.388 186.686,-181.464"/>
<text text-anchor="middle" x="250.082" y="-208.017" font-family="Times,serif" font-size="14.00">12, 13</text>
<polyline fill="none" stroke="black" points="267.582,-205.217 232.582,-205.217 253.347,-201.037 "/>
</g>
<!-- j -->
<g id="node7" class="node"><title>j</title>
<ellipse fill="none" stroke="black" cx="229.134" cy="-69.6336" rx="27" ry="18"/>
<text text-anchor="middle" x="229.134" y="-65.4336" font-family="Times,serif" font-size="14.00">j</text>
</g>
<!-- a&#45;&#45;j -->
<g id="6" class="edge"><title>a&#45;&#45;j</title>
<path fill="none" stroke="black" stroke-width="4" d="M359.999,-220.66C332.467,-188.886 270.383,-117.237 242.793,-85.3971"/>
<text text-anchor="middle" x="290.896" y="-155.828" font-family="Times,serif" font-size="14.00">6, 7</text>
<polyline fill="none" stroke="black" points="301.396,-153.028 280.396,-153.028 300.367,-151.841 "/>
</g>
<!-- h -->
<g id="node8" class="node"><title>h</title>
<ellipse fill="none" stroke="black" cx="342.196" cy="-18" rx="27" ry="18"/>
<text text-anchor="middle" x="342.196" y="-13.8" font-family="Times,serif" font-size="14.00">h</text>
</g>
<!-- a&#45;&#45;h -->
<g id="7" class="edge"><title>a&#45;&#45;h</title>
<path fill="none" stroke="black" stroke-width="4" d="M370.966,-218.103C365.042,-176.901 350.685,-77.0414 344.789,-36.0348"/>
<text text-anchor="middle" x="340.377" y="-129.869" font-family="Times,serif" font-size="14.00">20, 21</text>
<polyline fill="none" stroke="black" points="357.877,-127.069 322.877,-127.069 358.52,-131.537 "/>
</g>
<!-- g -->
<g id="node9" class="node"><title>g</title>
<ellipse fill="none" stroke="black" cx="465.225" cy="-35.6889" rx="27" ry="18"/>
<text text-anchor="middle" x="465.225" y="-31.4889" font-family="Times,serif" font-size="14.00">g</text>
</g>
<!-- a&#45;&#45;g -->
<g id="8" class="edge"><title>a&#45;&#45;g</title>
<path fill="none" stroke="black" stroke-width="4" d="M381.561,-218.888C398.935,-180.844 440.039,-90.8377 457.337,-52.9614"/>
<text text-anchor="middle" x="408.949" y="-138.725" font-family="Times,serif" font-size="14.00">2, 3</text>
<polyline fill="none" stroke="black" points="419.449,-135.925 398.449,-135.925 415.032,-145.596 "/>
</g>
<!-- m -->
<g id="node10" class="node"><title>m</title>
<ellipse fill="none" stroke="black" cx="559.16" cy="-117.084" rx="27" ry="18"/>
<text text-anchor="middle" x="559.16" y="-112.884" font-family="Times,serif" font-size="14.00">m</text>
</g>
<!-- a&#45;&#45;m -->
<g id="9" class="edge"><title>a&#45;&#45;m</title>
<path fill="none" stroke="black" stroke-width="4" d="M393.097,-223.806C428.738,-200.901 503.981,-152.545 539.634,-129.633"/>
<text text-anchor="middle" x="455.866" y="-179.519" font-family="Times,serif" font-size="14.00">0, 1</text>
<polyline fill="none" stroke="black" points="466.366,-176.719 445.366,-176.719 455.661,-183.599 "/>
</g>
<!-- f -->
<g id="node11" class="node"><title>f</title>
<ellipse fill="none" stroke="black" cx="594.178" cy="-236.343" rx="27" ry="18"/>
<text text-anchor="middle" x="594.178" y="-232.143" font-family="Times,serif" font-size="14.00">f</text>
</g>
<!-- a&#45;&#45;f -->
<g id="4" class="edge"><title>a&#45;&#45;f</title>
<path fill="none" stroke="black" stroke-width="4" d="M400.637,-236.343C442.974,-236.343 524.435,-236.343 566.908,-236.343"/>
<text text-anchor="middle" x="466.273" y="-239.143" font-family="Times,serif" font-size="14.00">18, 19</text>
<polyline fill="none" stroke="black" points="483.773,-236.343 448.773,-236.343 466.01,-236.343 "/>
</g>
<!-- k -->
<g id="node12" class="node"><title>k</title>
<ellipse fill="none" stroke="black" cx="559.16" cy="-355.603" rx="27" ry="18"/>
<text text-anchor="middle" x="559.16" y="-351.403" font-family="Times,serif" font-size="14.00">k</text>
</g>
<!-- a&#45;&#45;k -->
<g id="10" class="edge"><title>a&#45;&#45;k</title>
<path fill="none" stroke="black" stroke-width="4" d="M393.097,-248.881C428.738,-271.786 503.981,-320.142 539.634,-343.054"/>
<text text-anchor="middle" x="448.866" y="-298.768" font-family="Times,serif" font-size="14.00">16, 17</text>
<polyline fill="none" stroke="black" points="466.366,-295.968 431.366,-295.968 457.278,-290.127 "/>
</g>
<!-- e -->
<g id="node13" class="node"><title>e</title>
<ellipse fill="none" stroke="black" cx="465.225" cy="-436.998" rx="27" ry="18"/>
<text text-anchor="middle" x="465.225" y="-432.798" font-family="Times,serif" font-size="14.00">e</text>
</g>
<!-- a&#45;&#45;e -->
<g id="11" class="edge"><title>a&#45;&#45;e</title>
<path fill="none" stroke="black" stroke-width="4" d="M381.561,-253.799C398.935,-291.843 440.039,-381.849 457.337,-419.726"/>
<text text-anchor="middle" x="408.949" y="-339.562" font-family="Times,serif" font-size="14.00">8, 9</text>
<polyline fill="none" stroke="black" points="419.449,-336.762 398.449,-336.762 420.333,-338.7 "/>
</g>
</g>
</svg>
