<?xml version="1.0" encoding="UTF-8" standalone="no"?>
<!DOCTYPE svg PUBLIC "-//W3C//DTD SVG 1.1//EN"
 "http://www.w3.org/Graphics/SVG/1.1/DTD/svg11.dtd">
<!-- Generated by graphviz version 2.38.0 (20140413.2041)
 -->
<!-- Title: %3 Pages: 1 -->
<svg width="576pt" height="584pt"
 viewBox="0.00 0.00 575.82 583.59" xmlns="http://www.w3.org/2000/svg" xmlns:xlink="http://www.w3.org/1999/xlink">
<g id="graph0" class="graph" transform="scale(1 1) rotate(0) translate(4 579.59)">
<title>%3</title>
<polygon fill="white" stroke="none" points="-4,4 -4,-579.59 571.816,-579.59 571.816,4 -4,4"/>
<text text-anchor="middle" x="283.908" y="-560.39" font-family="Times,serif" font-size="14.00">Base Graph: Rural Postman Solution</text>
<!-- e -->
<g id="node1" class="node"><title>e</title>
<ellipse fill="none" stroke="black" cx="540.816" cy="-276.795" rx="27" ry="18"/>
<text text-anchor="middle" x="540.816" y="-272.595" font-family="Times,serif" font-size="14.00">e</text>
</g>
<!-- d -->
<g id="node8" class="node"><title>d</title>
<ellipse fill="none" stroke="black" cx="311.544" cy="-535.59" rx="27" ry="18"/>
<text text-anchor="middle" x="311.544" y="-531.39" font-family="Times,serif" font-size="14.00">d</text>
</g>
<!-- e&#45;&#45;d -->
<g id="0" class="edge"><title>e&#45;&#45;d</title>
<path fill="none" stroke="black" stroke-dasharray="5,2" d="M526.819,-292.594C485.791,-338.906 366.151,-473.952 325.358,-519.998"/>
<text text-anchor="middle" x="419.088" y="-409.096" font-family="Times,serif" font-size="14.00">16</text>
<polyline fill="none" stroke="black" points="426.088,-406.296 412.088,-406.296 419.419,-413.825 "/>
</g>
<!-- f -->
<g id="node11" class="node"><title>f</title>
<ellipse fill="none" stroke="black" cx="510.955" cy="-397.946" rx="27" ry="18"/>
<text text-anchor="middle" x="510.955" y="-393.746" font-family="Times,serif" font-size="14.00">f</text>
</g>
<!-- e&#45;&#45;f -->
<g id="1" class="edge"><title>e&#45;&#45;f</title>
<path fill="none" stroke="black" stroke-dasharray="5,2" d="M536.41,-294.671C530.764,-317.577 521.034,-357.056 515.379,-379.997"/>
</g>
<!-- a -->
<g id="node12" class="node"><title>a</title>
<ellipse fill="none" stroke="black" cx="27" cy="-339.184" rx="27" ry="18"/>
<text text-anchor="middle" x="27" y="-334.984" font-family="Times,serif" font-size="14.00">a</text>
</g>
<!-- e&#45;&#45;a -->
<g id="2" class="edge"><title>e&#45;&#45;a</title>
<path fill="none" stroke="black" d="M513.915,-280.061C425.125,-290.842 142.035,-325.216 53.6353,-335.95"/>
<text text-anchor="middle" x="276.775" y="-310.805" font-family="Times,serif" font-size="14.00">17</text>
<polyline fill="none" stroke="black" points="283.775,-308.005 269.775,-308.005 276.007,-308.949 "/>
</g>
<!-- m -->
<g id="node2" class="node"><title>m</title>
<ellipse fill="none" stroke="black" cx="311.544" cy="-18" rx="27" ry="18"/>
<text text-anchor="middle" x="311.544" y="-13.8" font-family="Times,serif" font-size="14.00">m</text>
</g>
<!-- l -->
<g id="node3" class="node"><title>l</title>
<ellipse fill="none" stroke="black" cx="187.676" cy="-33.0402" rx="27" ry="18"/>
<text text-anchor="middle" x="187.676" y="-28.8402" font-family="Times,serif" font-size="14.00">l</text>
</g>
<!-- m&#45;&#45;l -->
<g id="4" class="edge"><title>m&#45;&#45;l</title>
<path fill="none" stroke="black" stroke-dasharray="5,2" d="M284.971,-21.2265C264.214,-23.7469 235.487,-27.235 214.633,-29.7672"/>
<text text-anchor="middle" x="242.802" y="-28.2968" font-family="Times,serif" font-size="14.00">13</text>
<polyline fill="none" stroke="black" points="249.802,-25.4968 235.802,-25.4968 242.307,-26.4068 "/>
</g>
<!-- b -->
<g id="node9" class="node"><title>b</title>
<ellipse fill="none" stroke="black" cx="428.213" cy="-62.2466" rx="27" ry="18"/>
<text text-anchor="middle" x="428.213" y="-58.0466" font-family="Times,serif" font-size="14.00">b</text>
</g>
<!-- m&#45;&#45;b -->
<g id="5" class="edge"><title>m&#45;&#45;b</title>
<path fill="none" stroke="black" stroke-dasharray="5,2" d="M335.154,-26.954C355.395,-34.6305 384.407,-45.6332 404.638,-53.306"/>
</g>
<!-- m&#45;&#45;a -->
<g id="3" class="edge"><title>m&#45;&#45;a</title>
<path fill="none" stroke="black" d="M297.433,-33.9275C248.877,-88.7361 89.0316,-269.164 40.8602,-323.539"/>
<text text-anchor="middle" x="162.147" y="-181.533" font-family="Times,serif" font-size="14.00">14</text>
<polyline fill="none" stroke="black" points="169.147,-178.733 155.147,-178.733 162.6,-186.123 "/>
</g>
<!-- k -->
<g id="node4" class="node"><title>k</title>
<ellipse fill="none" stroke="black" cx="84.9868" cy="-103.922" rx="27" ry="18"/>
<text text-anchor="middle" x="84.9868" y="-99.7217" font-family="Times,serif" font-size="14.00">k</text>
</g>
<!-- l&#45;&#45;k -->
<g id="7" class="edge"><title>l&#45;&#45;k</title>
<path fill="none" stroke="black" stroke-dasharray="5,2" d="M168.842,-46.041C150.429,-58.7504 122.541,-78.0002 104.05,-90.7634"/>
</g>
<!-- l&#45;&#45;a -->
<g id="6" class="edge"><title>l&#45;&#45;a</title>
<path fill="none" stroke="black" d="M178.577,-50.377C150.297,-104.262 64.1434,-268.413 35.9992,-322.037"/>
<text text-anchor="middle" x="100.288" y="-189.007" font-family="Times,serif" font-size="14.00">12</text>
<polyline fill="none" stroke="black" points="107.288,-186.207 93.2883,-186.207 102.883,-194.6 "/>
</g>
<!-- j -->
<g id="node10" class="node"><title>j</title>
<ellipse fill="none" stroke="black" cx="27" cy="-214.406" rx="27" ry="18"/>
<text text-anchor="middle" x="27" y="-210.206" font-family="Times,serif" font-size="14.00">j</text>
</g>
<!-- k&#45;&#45;j -->
<g id="8" class="edge"><title>k&#45;&#45;j</title>
<path fill="none" stroke="black" stroke-dasharray="5,2" d="M75.9264,-121.185C65.0326,-141.941 46.8622,-176.562 35.9968,-197.264"/>
<text text-anchor="middle" x="48.9616" y="-162.025" font-family="Times,serif" font-size="14.00">10</text>
<polyline fill="none" stroke="black" points="55.9616,-159.225 41.9616,-159.225 51.5411,-167.647 "/>
</g>
<!-- k&#45;&#45;a -->
<g id="9" class="edge"><title>k&#45;&#45;a</title>
<path fill="none" stroke="black" d="M80.533,-121.992C69.7128,-165.891 42.1433,-277.745 31.3896,-321.374"/>
<text text-anchor="middle" x="62.705" y="-224.483" font-family="Times,serif" font-size="14.00">11</text>
<polyline fill="none" stroke="black" points="69.4486,-221.683 55.9613,-221.683 54.7006,-226.798 "/>
</g>
<!-- i -->
<g id="node5" class="node"><title>i</title>
<ellipse fill="none" stroke="black" cx="84.9868" cy="-449.668" rx="27" ry="18"/>
<text text-anchor="middle" x="84.9868" y="-445.468" font-family="Times,serif" font-size="14.00">i</text>
</g>
<!-- h -->
<g id="node6" class="node"><title>h</title>
<ellipse fill="none" stroke="black" cx="187.676" cy="-520.55" rx="27" ry="18"/>
<text text-anchor="middle" x="187.676" y="-516.35" font-family="Times,serif" font-size="14.00">h</text>
</g>
<!-- i&#45;&#45;h -->
<g id="11" class="edge"><title>i&#45;&#45;h</title>
<path fill="none" stroke="black" stroke-dasharray="5,2" d="M103.822,-462.669C122.234,-475.378 150.123,-494.628 168.613,-507.391"/>
<text text-anchor="middle" x="132.717" y="-487.83" font-family="Times,serif" font-size="14.00">4</text>
<polyline fill="none" stroke="black" points="136.217,-485.03 129.217,-485.03 137.274,-485.76 "/>
</g>
<!-- i&#45;&#45;j -->
<g id="10" class="edge"><title>i&#45;&#45;j</title>
<path fill="none" stroke="black" stroke-dasharray="5,2" d="M80.533,-431.598C69.7128,-387.699 42.1433,-275.845 31.3896,-232.216"/>
</g>
<!-- i&#45;&#45;a -->
<g id="12" class="edge"><title>i&#45;&#45;a</title>
<path fill="none" stroke="black" d="M75.9264,-432.405C65.0326,-411.649 46.8622,-377.028 35.9968,-356.326"/>
<text text-anchor="middle" x="52.4616" y="-397.165" font-family="Times,serif" font-size="14.00">3</text>
<polyline fill="none" stroke="black" points="55.9616,-394.365 48.9616,-394.365 58.1619,-398.558 "/>
</g>
<!-- g -->
<g id="node7" class="node"><title>g</title>
<ellipse fill="none" stroke="black" cx="428.213" cy="-491.343" rx="27" ry="18"/>
<text text-anchor="middle" x="428.213" y="-487.143" font-family="Times,serif" font-size="14.00">g</text>
</g>
<!-- h&#45;&#45;g -->
<g id="13" class="edge"><title>h&#45;&#45;g</title>
<path fill="none" stroke="black" stroke-dasharray="5,2" d="M214.337,-517.313C260.573,-511.699 355.114,-500.219 401.433,-494.595"/>
</g>
<!-- h&#45;&#45;a -->
<g id="14" class="edge"><title>h&#45;&#45;a</title>
<path fill="none" stroke="black" d="M173.699,-504.772C143.235,-470.385 71.161,-389.031 40.8312,-354.796"/>
<text text-anchor="middle" x="103.765" y="-418.584" font-family="Times,serif" font-size="14.00">5</text>
<polyline fill="none" stroke="black" points="107.265,-415.784 100.265,-415.784 102.114,-423.97 "/>
</g>
<!-- g&#45;&#45;f -->
<g id="15" class="edge"><title>g&#45;&#45;f</title>
<path fill="none" stroke="black" stroke-dasharray="5,2" d="M442.249,-475.5C457.556,-458.221 481.901,-430.742 497.126,-413.556"/>
<text text-anchor="middle" x="466.187" y="-447.328" font-family="Times,serif" font-size="14.00">1</text>
<polyline fill="none" stroke="black" points="469.687,-444.528 462.687,-444.528 464.623,-450.245 "/>
</g>
<!-- g&#45;&#45;a -->
<g id="16" class="edge"><title>g&#45;&#45;a</title>
<path fill="none" stroke="black" d="M404.613,-482.393C333.476,-455.415 121.668,-375.086 50.5701,-348.123"/>
<text text-anchor="middle" x="224.091" y="-418.058" font-family="Times,serif" font-size="14.00">2</text>
<polyline fill="none" stroke="black" points="227.591,-415.258 220.591,-415.258 226.748,-414.938 "/>
</g>
<!-- d&#45;&#45;a -->
<g id="18" class="edge"><title>d&#45;&#45;a</title>
<path fill="none" stroke="black" d="M292.432,-522.398C240.596,-486.618 97.767,-388.031 46.0284,-352.318"/>
<text text-anchor="middle" x="162.23" y="-440.158" font-family="Times,serif" font-size="14.00">15</text>
<polyline fill="none" stroke="black" points="169.23,-437.358 155.23,-437.358 167.483,-436.152 "/>
</g>
<!-- c -->
<g id="node13" class="node"><title>c</title>
<ellipse fill="none" stroke="black" cx="510.955" cy="-155.644" rx="27" ry="18"/>
<text text-anchor="middle" x="510.955" y="-151.444" font-family="Times,serif" font-size="14.00">c</text>
</g>
<!-- d&#45;&#45;c -->
<g id="17" class="edge"><title>d&#45;&#45;c</title>
<path fill="none" stroke="black" stroke-dasharray="5,2" d="M320.63,-518.277C353.85,-454.982 468.508,-236.52 501.815,-173.058"/>
</g>
<!-- b&#45;&#45;a -->
<g id="20" class="edge"><title>b&#45;&#45;a</title>
<path fill="none" stroke="black" d="M409.399,-75.2324C342.007,-121.75 113.099,-279.753 45.7725,-326.226"/>
<text text-anchor="middle" x="224.086" y="-203.529" font-family="Times,serif" font-size="14.00">8</text>
<polyline fill="none" stroke="black" points="227.586,-200.729 220.586,-200.729 221.92,-204.64 "/>
</g>
<!-- b&#45;&#45;c -->
<g id="19" class="edge"><title>b&#45;&#45;c</title>
<path fill="none" stroke="black" stroke-dasharray="5,2" d="M442.249,-78.0901C457.556,-95.3688 481.901,-122.848 497.126,-140.034"/>
<text text-anchor="middle" x="466.187" y="-111.862" font-family="Times,serif" font-size="14.00">7</text>
<polyline fill="none" stroke="black" points="469.687,-109.062 462.687,-109.062 471.574,-111.192 "/>
</g>
<!-- j&#45;&#45;a -->
<g id="21" class="edge"><title>j&#45;&#45;a</title>
<path fill="none" stroke="black" d="M27,-232.55C27,-256.207 27,-297.35 27,-321.018"/>
<text text-anchor="middle" x="23.5" y="-279.584" font-family="Times,serif" font-size="14.00">9</text>
<polyline fill="none" stroke="black" points="27,-276.784 20,-276.784 27,-283.603 "/>
</g>
<!-- f&#45;&#45;a -->
<g id="23" class="edge"><title>f&#45;&#45;a</title>
<path fill="none" stroke="black" d="M484.246,-394.703C399.634,-384.43 138.124,-352.676 53.6263,-342.417"/>
<text text-anchor="middle" x="265.436" y="-371.36" font-family="Times,serif" font-size="14.00">0</text>
<polyline fill="none" stroke="black" points="268.936,-368.56 261.936,-368.56 266.358,-368.247 "/>
</g>
<!-- a&#45;&#45;c -->
<g id="22" class="edge"><title>a&#45;&#45;c</title>
<path fill="none" stroke="black" d="M50.6698,-330.207C132.841,-299.043 405.23,-195.74 487.331,-164.603"/>
<text text-anchor="middle" x="265.5" y="-250.205" font-family="Times,serif" font-size="14.00">6</text>
<polyline fill="none" stroke="black" points="269,-247.405 262,-247.405 263.315,-249.561 "/>
</g>
</g>
</svg>
